<svg width="82" height="94" viewBox="0 0 82 94" fill="none" xmlns="http://www.w3.org/2000/svg">
<path d="M56.7917 75.6406H50.9982L44.0625 69.2761V66.0122L51.243 59.158V48.3056L60.6267 42.1858L71.3159 50.2639L56.7917 75.6406ZM32.8021 58.5052L33.8628 48.3056L30.3542 39.1667H51.0798L47.6528 48.3056L48.6319 58.5052H40.6354H32.8021ZM37.5347 69.2761L30.599 75.7222H24.724L10.1181 50.2639L20.8889 42.2674L30.3542 48.3056V59.158L37.5347 66.0122V69.2761ZM24.6424 20.3177H56.7101L60.5451 36.6372H20.8889L24.6424 20.3177ZM40.717 0L0 23.5V70.5L40.717 94L81.434 70.5V23.5L40.717 0Z" fill="#03316C"/>
</svg>
