<svg width="338" height="304" viewBox="0 0 338 304" fill="none" xmlns="http://www.w3.org/2000/svg">
<path d="M224.499 45.2936C209.121 45.5381 194.313 38.9682 184.383 27.8531C176.716 19.2716 166.867 12.0551 155.055 7.00613C118.893 -8.45136 76.9034 2.35763 55.311 32.6411C40.6904 53.1461 38.6625 77.6786 46.9679 99.0852C52.1789 112.516 46.5479 127.489 33.057 133.864C23.4149 138.421 15.0029 145.381 8.95346 154.483C-6.15455 177.216 -1.64256 207.036 18.7169 226.666C20.9205 228.792 23.2139 230.686 25.5795 232.371C36.951 240.472 52.7684 243.03 55.023 256.081C58.401 275.631 66.0674 288.268 87.3554 296.532C129.756 312.99 146.943 296.34 168.514 279.105C178.98 270.744 202.047 269.194 215.476 272.971C217.552 273.555 219.433 273.981 220.959 274.162C248.782 277.476 276.976 265.462 291.411 241.597C302.437 223.365 303.01 202.195 294.973 183.945C288.399 169.015 287.592 152.46 293.848 137.665C294.402 136.356 294.916 135.015 295.387 133.641C305.34 104.65 292.588 72.2277 264.426 55.7561C251.884 48.4212 238.029 45.0791 224.499 45.2936Z" fill="#DCFCFD"/>
<path d="M276.492 135.687L286.934 135.681C287.729 135.681 288.374 135.038 288.374 134.243L288.411 68.3507C288.411 67.5542 287.768 66.9092 286.971 66.9092L276.53 66.9152C275.735 66.9152 275.09 67.5587 275.09 68.3537L275.052 134.246C275.052 135.042 275.696 135.687 276.492 135.687Z" fill="#DAF4F5"/>
<path d="M276.491 136.061C276.006 136.061 275.552 135.873 275.21 135.53C274.866 135.186 274.679 134.732 274.679 134.247L274.718 68.3537C274.718 67.3546 275.531 66.5416 276.53 66.5416L286.973 66.5356C287.457 66.5356 287.912 66.7247 288.255 67.0682C288.599 67.4116 288.786 67.8661 288.786 68.3506L288.747 134.244C288.747 135.243 287.934 136.056 286.935 136.056L276.492 136.061H276.491ZM286.973 67.2826L276.53 67.2886C275.942 67.2886 275.465 67.7657 275.465 68.3537L275.426 134.247C275.424 134.532 275.537 134.801 275.738 135.002C275.939 135.203 276.207 135.314 276.491 135.314H276.492L286.935 135.308C287.523 135.308 288 134.832 288 134.244L288.039 68.3506C288.041 68.0656 287.928 67.7971 287.727 67.5961C287.526 67.3936 287.258 67.2826 286.973 67.2826Z" fill="#90BEC0"/>
<path d="M237.953 111.581V104.639C237.953 103.991 237.426 103.464 236.778 103.464H186.567C185.919 103.464 185.393 103.991 185.393 104.639V111.581C185.393 112.229 185.919 112.755 186.567 112.755H236.778C237.426 112.755 237.953 112.229 237.953 111.581Z" fill="#DAF4F5"/>
<path d="M236.778 113.129H186.567C185.714 113.129 185.019 112.434 185.019 111.581V104.637C185.019 103.784 185.714 103.091 186.567 103.091H236.778C237.632 103.091 238.328 103.784 238.328 104.637V111.581C238.328 112.434 237.632 113.129 236.778 113.129ZM186.567 103.838C186.126 103.838 185.766 104.196 185.766 104.637V111.581C185.766 112.022 186.126 112.382 186.567 112.382H236.778C237.221 112.382 237.579 112.022 237.579 111.581V104.637C237.579 104.196 237.221 103.838 236.778 103.838H186.567Z" fill="#90BEC0"/>
<path d="M240.735 126.043V113.893C240.735 113.219 240.189 112.673 239.516 112.673H183.83C183.156 112.673 182.61 113.219 182.61 113.893V126.043C182.61 126.716 183.156 127.262 183.83 127.262H239.516C240.189 127.262 240.735 126.716 240.735 126.043Z" fill="#D9F5F6"/>
<path d="M235.17 126.65V113.285C235.17 112.946 234.895 112.673 234.558 112.673H224.034C223.696 112.673 223.422 112.946 223.422 113.285V126.65C223.422 126.989 223.695 127.262 224.034 127.262H234.558C234.895 127.262 235.17 126.989 235.17 126.65Z" fill="#C0EAEB"/>
<path d="M289.319 129.696L300.158 129.717C300.665 129.719 301.077 129.308 301.079 128.801L301.266 73.2362C301.268 72.7337 300.861 72.3257 300.359 72.3242L289.52 72.3032C289.013 72.3017 288.6 72.7127 288.599 73.2197L288.411 128.784C288.41 129.287 288.816 129.695 289.319 129.696Z" fill="#D9F5F6"/>
<path d="M301.212 89.1239L288.545 89.0999L288.555 86.0039L301.223 86.0279L301.212 89.1239Z" fill="#C0EAEB"/>
<path d="M288.435 121.918L288.445 118.822L301.113 118.846L301.102 121.942L288.435 121.918Z" fill="#C0EAEB"/>
<path d="M300.161 130.092C300.159 130.092 300.158 130.092 300.156 130.092L289.319 130.07C288.975 130.068 288.654 129.935 288.411 129.692C288.17 129.449 288.036 129.126 288.038 128.784L288.225 73.2182C288.227 72.5072 288.807 71.9297 289.518 71.9297C289.517 71.9297 289.52 71.9297 289.518 71.9297L300.359 71.9507C300.702 71.9507 301.023 72.0856 301.265 72.3287C301.508 72.5732 301.641 72.8957 301.64 73.2377L301.452 128.804C301.451 129.515 300.872 130.092 300.161 130.092ZM289.518 72.6767C289.218 72.6767 288.974 72.9197 288.972 73.2197L288.785 128.786C288.783 128.928 288.84 129.063 288.941 129.165C289.041 129.266 289.176 129.323 289.32 129.323L300.158 129.345C300.158 129.345 300.158 129.345 300.159 129.345C300.459 129.345 300.704 129.101 300.705 128.801L300.891 73.2362C300.893 73.0922 300.836 72.9572 300.735 72.8551C300.635 72.7547 300.5 72.6977 300.357 72.6977L289.518 72.6767Z" fill="#90BEC0"/>
<path d="M264.438 129.699L274.067 129.717C274.518 129.719 274.884 129.354 274.886 128.903L275.052 79.5346C275.054 79.0876 274.692 78.7246 274.245 78.7231L264.615 78.7051C264.164 78.7036 263.799 79.0681 263.798 79.5196L263.631 128.888C263.63 129.335 263.991 129.698 264.438 129.699Z" fill="#C2FCFE"/>
<path d="M275.004 93.6499L263.749 93.6289L263.76 90.8779L275.014 90.8989L275.004 93.6499Z" fill="#5CE1E6"/>
<path d="M263.651 122.788L263.662 120.037L274.916 120.058L274.907 122.809L263.651 122.788Z" fill="#5CE1E6"/>
<path d="M274.071 130.092C274.07 130.092 274.068 130.092 274.067 130.092L264.437 130.073C263.784 130.071 263.256 129.54 263.258 128.888L263.423 79.5181C263.424 78.8641 263.958 78.3315 264.614 78.3315C264.614 78.3315 264.615 78.3315 264.617 78.3315L274.247 78.351C274.562 78.351 274.859 78.4756 275.081 78.6991C275.303 78.9226 275.427 79.2196 275.426 79.5361L275.259 128.906C275.258 129.222 275.133 129.521 274.908 129.746C274.685 129.969 274.386 130.092 274.071 130.092ZM264.44 129.326L274.068 129.345C274.067 129.345 274.07 129.345 274.068 129.345C274.313 129.345 274.511 129.147 274.512 128.903L274.679 79.5331C274.68 79.4161 274.634 79.308 274.551 79.2256C274.47 79.1431 274.362 79.0981 274.245 79.0981L264.615 79.0786C264.371 79.0786 264.173 79.2766 264.171 79.521L264.005 128.891C264.003 129.006 264.05 129.116 264.131 129.198C264.213 129.281 264.323 129.326 264.44 129.326Z" fill="#90BEC0"/>
<path d="M239.516 127.636H183.83C182.951 127.636 182.237 126.922 182.237 126.043V113.895C182.237 113.016 182.951 112.3 183.83 112.3H239.516C240.395 112.3 241.109 113.016 241.109 113.895V126.043C241.109 126.922 240.395 127.636 239.516 127.636ZM183.83 113.047C183.363 113.047 182.984 113.427 182.984 113.895V126.043C182.984 126.51 183.363 126.889 183.83 126.889H239.516C239.982 126.889 240.362 126.51 240.362 126.043V113.895C240.362 113.427 239.982 113.047 239.516 113.047H183.83Z" fill="#90BEC0"/>
<path d="M178.592 137.898H334.61C335.832 137.898 336.824 136.908 336.824 135.685V129.61C336.824 128.388 335.832 127.398 334.61 127.398H178.592C177.369 127.398 176.378 128.388 176.378 129.61V135.685C176.378 136.908 177.369 137.898 178.592 137.898Z" fill="#D6F3F4"/>
<path d="M334.61 138.273H178.592C177.165 138.273 176.004 137.112 176.004 135.685V129.61C176.004 128.184 177.165 127.024 178.592 127.024H334.61C336.036 127.024 337.197 128.184 337.197 129.61V135.685C337.197 137.112 336.036 138.273 334.61 138.273ZM178.592 127.771C177.578 127.771 176.751 128.596 176.751 129.61V135.685C176.751 136.699 177.578 137.526 178.592 137.526H334.61C335.624 137.526 336.45 136.699 336.45 135.685V129.61C336.45 128.596 335.624 127.771 334.61 127.771H178.592Z" fill="#90BEC0"/>
<path d="M214.077 62.7774C213.871 62.7774 213.702 62.6116 213.7 62.4048C213.699 62.1969 213.865 62.0272 214.073 62.0253L217.78 61.9913C217.969 61.9878 218.158 62.1563 218.16 62.3642C218.162 62.5722 217.995 62.7418 217.787 62.7438L214.08 62.7774C214.079 62.7774 214.078 62.7774 214.077 62.7774Z" fill="white"/>
<path d="M115.964 72.6738H99.3462C98.7315 72.6738 98.2327 72.1749 98.2327 71.5603C98.2327 70.9456 98.7315 70.4468 99.3462 70.4468H115.964C116.579 70.4468 117.078 70.9456 117.078 71.5603C117.078 72.1749 116.579 72.6738 115.964 72.6738Z" fill="white"/>
<path d="M71.5365 51.9078H68.6038C68.3904 51.9078 68.2173 51.7346 68.2173 51.5213C68.2173 51.3079 68.3904 51.1348 68.6038 51.1348H71.5365C71.7498 51.1348 71.923 51.3079 71.923 51.5213C71.923 51.7346 71.7498 51.9078 71.5365 51.9078Z" fill="white"/>
<path d="M124.03 61.8375H112.982C112.769 61.8375 112.597 61.6649 112.597 61.4522C112.597 61.2395 112.769 61.0669 112.982 61.0669H124.03C124.243 61.0669 124.415 61.2395 124.415 61.4522C124.415 61.6649 124.243 61.8375 124.03 61.8375Z" fill="white"/>
<path d="M248.665 195.845C248.453 195.845 248.28 195.674 248.278 195.462C248.276 195.249 248.447 195.074 248.661 195.072L252.478 195.037C252.699 195.036 252.866 195.207 252.868 195.42C252.87 195.633 252.699 195.808 252.485 195.81L248.668 195.845C248.667 195.845 248.666 195.845 248.665 195.845Z" fill="white"/>
<path d="M289.105 206.35C288.495 206.35 287.997 205.858 287.992 205.247C287.986 204.632 288.48 204.129 289.095 204.123L311.245 203.92C311.248 203.92 311.252 203.92 311.255 203.92C311.865 203.92 312.363 204.413 312.368 205.024C312.374 205.639 311.88 206.142 311.265 206.147L289.115 206.35C289.112 206.35 289.108 206.35 289.105 206.35Z" fill="white"/>
<path d="M50.8865 100.516L51.8672 97.5198C52.2675 97.4579 52.6674 97.3786 53.067 97.2703C53.6173 97.1207 54.1412 96.9201 54.6469 96.696L56.8695 98.6668C57.2204 98.9775 57.7411 98.9958 58.1123 98.7095L59.9826 97.2652C60.3537 96.9788 60.4695 96.4707 60.2579 96.0524L58.889 93.3517C59.5132 92.5366 60.0201 91.6377 60.3969 90.6824L63.1806 90.5143C63.6479 90.486 64.0295 90.1284 64.0893 89.6645L64.3914 87.3219C64.4512 86.8581 64.1726 86.4166 63.7277 86.2707L61.0815 85.4038C61.0189 84.8753 60.9314 84.3449 60.7882 83.8166C60.6342 83.2485 60.4264 82.7092 60.1923 82.189L61.8785 80.2877C62.1893 79.9368 62.2077 79.4148 61.9214 79.0436L60.4784 77.1734C60.1921 76.8023 59.6825 76.6877 59.2642 76.8993L56.9605 78.0671C56.0284 77.3367 54.9858 76.7558 53.8695 76.3569L53.726 73.9766C53.6978 73.5094 53.3416 73.1266 52.8778 73.0668L50.5338 72.7645C50.07 72.7047 49.6284 72.9846 49.4825 73.4295L48.6965 75.8273C48.2419 75.8902 47.7872 75.9742 47.3329 76.0966C46.617 76.2909 45.9373 76.5533 45.2978 76.8724L43.4995 75.2786C43.1486 74.9679 42.6278 74.9496 42.2567 75.236L40.3852 76.6788C40.0141 76.9651 39.8996 77.4735 40.1112 77.8917L41.3147 80.2674C40.6537 81.1834 40.1384 82.1987 39.7843 83.2745L37.1886 83.4299C36.7213 83.4581 36.3398 83.8145 36.2798 84.2796L35.9778 86.6222C35.918 87.0861 36.1964 87.5288 36.6412 87.6747L39.4016 88.5788C39.4588 88.9032 39.5253 89.2275 39.6131 89.5505C39.8029 90.25 40.0597 90.9118 40.3686 91.5382L38.4904 93.6577C38.1797 94.0087 38.1614 94.5294 38.4477 94.9005L39.8907 96.7707C40.1771 97.1418 40.6854 97.2562 41.1037 97.0447L43.879 95.6405C44.6758 96.2015 45.5454 96.6492 46.4626 96.9828L46.643 99.9688C46.6712 100.436 47.0275 100.818 47.4914 100.877L49.834 101.179C50.2992 101.239 50.7406 100.961 50.8865 100.516ZM46.2021 86.168C46.4867 83.9604 48.508 82.4009 50.7155 82.6855C52.923 82.9702 54.4826 84.9915 54.1979 87.199C53.9133 89.4065 51.892 90.9661 49.6845 90.6814C47.477 90.3968 45.9174 88.3755 46.2021 86.168Z" fill="white"/>
<path d="M35.3437 86.5406L35.6458 84.1979C35.7446 83.4313 36.377 82.8392 37.1491 82.7935L39.3216 82.6628C39.6417 81.7993 40.0606 80.9788 40.5724 80.2153L39.5418 78.179C39.1909 77.4891 39.3829 76.6461 39.9958 76.1743L41.8647 74.7311C42.4764 74.2592 43.3419 74.2875 43.9204 74.8007L45.4034 76.1147C45.9744 75.8554 46.5644 75.6436 47.1653 75.4806C47.4883 75.3928 47.8333 75.3198 48.2114 75.2562L48.8755 73.2297C49.1156 72.4946 49.8475 72.0328 50.6141 72.1317L52.958 72.4339C53.7246 72.5328 54.3167 73.1652 54.3625 73.9373L54.4798 75.906C55.378 76.2649 56.231 76.7381 57.0255 77.3174L58.9755 76.3311C59.6653 75.9802 60.5084 76.1722 60.9817 76.784L62.4246 78.6542C62.8965 79.2672 62.8667 80.1325 62.3538 80.7097L60.9376 82.309C61.1332 82.7793 61.2849 83.2216 61.4014 83.65C61.5077 84.0442 61.5921 84.4553 61.66 84.9224L63.9247 85.6648C64.6599 85.9049 65.1216 86.6368 65.0228 87.4034L64.7207 89.746C64.6219 90.5126 63.9894 91.1047 63.2174 91.1505L60.8318 91.2946C60.5069 92.0413 60.1062 92.7518 59.6352 93.4136L60.8246 95.765C61.1757 96.4535 60.9836 97.2979 60.3705 97.771L58.5016 99.2141C57.8899 99.6861 57.0245 99.6564 56.4461 99.1433L54.5244 97.4412C54.071 97.6284 53.6468 97.7731 53.2333 97.8863C52.9405 97.9647 52.6453 98.031 52.3518 98.0843L51.4909 100.714C51.2509 101.449 50.5177 101.911 49.7511 101.812L47.4084 101.51C46.6419 101.411 46.051 100.779 46.0053 100.007L45.85 97.4309C45.1357 97.142 44.4588 96.7879 43.8301 96.3779L41.3908 97.6141C40.701 97.965 39.8564 97.7742 39.3848 97.1599L37.9418 95.2897C37.4712 94.6782 37.4994 93.814 38.0112 93.2354L39.6111 91.43C39.3597 90.8705 39.1536 90.2971 38.9958 89.718C38.9365 89.5017 38.8892 89.2842 38.8446 89.0671L36.4416 88.2804C35.7064 88.0403 35.2448 87.3071 35.3437 86.5406ZM42.0575 80.3249L41.8306 80.6404C41.208 81.5046 40.7233 82.4565 40.3888 83.4727L40.2527 83.8832L37.2252 84.0674C37.0629 84.0768 36.932 84.2 36.9113 84.3611L36.6092 86.7037C36.5884 86.8648 36.6835 87.0185 36.8382 87.0688L39.9624 88.0911L40.0287 88.4682C40.0818 88.7736 40.1454 89.079 40.2276 89.3841C40.3995 90.0179 40.6379 90.6483 40.9386 91.2564L41.128 91.6414L38.9655 94.081C38.8589 94.2007 38.8525 94.3835 38.951 94.5111L40.3953 96.3815C40.4936 96.5104 40.6696 96.5489 40.8137 96.4764L43.9312 94.897L44.2461 95.1185C44.9823 95.6375 45.8006 96.0627 46.6799 96.3834L47.0736 96.5266L47.2781 99.9292C47.2875 100.092 47.4105 100.224 47.5716 100.244L49.9143 100.547C50.0754 100.567 50.2291 100.471 50.2795 100.316L51.3819 96.9501L51.7687 96.8903C52.1461 96.832 52.5242 96.7579 52.9006 96.6559C53.3619 96.5304 53.8484 96.3527 54.3866 96.1131L54.7621 95.9462L57.2904 98.1888C57.4127 98.2957 57.5942 98.3019 57.7218 98.2035L59.592 96.7605C59.7209 96.6622 59.7596 96.4849 59.6871 96.3408L58.1385 93.2814L58.3817 92.9627C58.9693 92.1957 59.4469 91.3498 59.8009 90.4484L59.9514 90.0702L63.1411 89.8779C63.3034 89.8684 63.4357 89.7441 63.4565 89.583L63.7586 87.2404C63.7793 87.0793 63.6828 86.9268 63.5281 86.8765L60.494 85.8829L60.4458 85.4778C60.3788 84.9012 60.291 84.4249 60.171 83.9827C60.0424 83.5052 59.8586 83.0046 59.609 82.4507L59.4408 82.075L61.4008 79.8642C61.5088 79.7434 61.5126 79.5603 61.4142 79.4327L59.9725 77.5626C59.8742 77.4337 59.6956 77.3949 59.5515 77.4674L56.8848 78.8183L56.5656 78.5684C55.6741 77.871 54.6953 77.3286 53.6548 76.9567L53.2571 76.8143L53.0884 74.0147C53.0789 73.8523 52.956 73.7202 52.7948 73.6994L50.4509 73.3972C50.2898 73.3764 50.1373 73.473 50.087 73.6277L49.1768 76.4044L48.7827 76.4593C48.2986 76.5263 47.8772 76.608 47.498 76.711C46.841 76.8892 46.1964 77.1349 45.5808 77.4426L45.1955 77.6346L43.0747 75.755C42.9525 75.6481 42.7723 75.642 42.6447 75.7405L40.7745 77.1835C40.6456 77.2817 40.6056 77.4589 40.6794 77.6031L42.0575 80.3249ZM45.5692 86.0864C45.8984 83.5333 48.2426 81.7234 50.7958 82.0526C53.3489 82.3819 55.1586 84.7273 54.8294 87.2805C54.5002 89.8336 52.1548 91.642 49.6017 91.3128C47.0486 90.9836 45.24 88.6396 45.5692 86.0864ZM53.5652 87.1175C53.8044 85.262 52.488 83.5574 50.6326 83.3182C48.7772 83.0789 47.0727 84.394 46.8335 86.2494C46.5942 88.1048 47.9093 89.8093 49.7647 90.0486C51.6201 90.2878 53.3259 88.9728 53.5652 87.1175Z" fill="#6D9091"/>
<path d="M110.857 30.0993L112.426 30.4638C112.476 30.6647 112.534 30.8649 112.608 31.0635C112.709 31.337 112.834 31.5939 112.971 31.8416L112.069 33.0622C111.926 33.2544 111.941 33.5211 112.103 33.697L112.922 34.5842C113.085 34.7601 113.35 34.7957 113.553 34.669L114.866 33.8502C115.31 34.1312 115.79 34.3487 116.293 34.4973L116.504 35.9073C116.54 36.1441 116.738 36.3226 116.977 36.3321L118.184 36.3801C118.423 36.3896 118.636 36.2275 118.69 35.9943L119.012 34.6078C119.278 34.5524 119.544 34.4834 119.807 34.3864C120.089 34.2822 120.354 34.1529 120.608 34.0101L121.653 34.7829C121.845 34.9253 122.112 34.9103 122.288 34.7479L123.175 33.9292C123.351 33.7667 123.386 33.5026 123.26 33.2991L122.562 32.1779C122.891 31.6702 123.14 31.1138 123.293 30.5274L124.498 30.3468C124.735 30.3113 124.913 30.1126 124.923 29.8736L124.971 28.6672C124.98 28.4282 124.819 28.216 124.585 28.1617L123.328 27.8695C123.276 27.6411 123.213 27.4134 123.13 27.1878C122.999 26.8318 122.834 26.4977 122.643 26.1864L123.373 25.1989C123.516 25.0061 123.501 24.7394 123.339 24.5635L122.52 23.6763C122.357 23.5004 122.093 23.4648 121.89 23.5915L120.735 24.3114C120.238 24.0164 119.699 23.7999 119.135 23.6683L118.938 22.3533C118.902 22.1165 118.704 21.9385 118.465 21.929L117.258 21.881C117.019 21.8714 116.806 22.033 116.752 22.2663L116.416 23.713C116.253 23.7566 116.092 23.8053 115.931 23.8643C115.584 23.992 115.257 24.153 114.953 24.3388L113.789 23.4782C113.597 23.3358 113.331 23.3502 113.155 23.5127L112.267 24.3319C112.091 24.4944 112.056 24.7585 112.183 24.962L113.023 26.3112C112.774 26.7419 112.585 27.2058 112.456 27.6874L110.944 27.9137C110.707 27.9492 110.529 28.148 110.52 28.3869L110.471 29.5939C110.462 29.8329 110.624 30.0451 110.857 30.0993ZM117.951 27.0669C119.088 27.1121 119.973 28.0702 119.928 29.2073C119.883 30.3444 118.924 31.2297 117.787 31.1844C116.65 31.1391 115.765 30.1805 115.81 29.0434C115.856 27.9063 116.814 27.0216 117.951 27.0669Z" fill="white"/>
<path d="M117.269 21.6046L118.476 21.6527C118.847 21.6674 119.157 21.9453 119.211 22.3125L119.381 23.4451C119.852 23.5707 120.304 23.7531 120.729 23.9895L121.743 23.3572C122.058 23.1599 122.471 23.2162 122.723 23.4889L123.542 24.3761C123.794 24.6488 123.817 25.0643 123.595 25.363L122.975 26.2032C123.138 26.4883 123.277 26.7861 123.39 27.0919C123.452 27.2604 123.506 27.4371 123.557 27.6393L124.647 27.892C125.01 27.9758 125.262 28.3071 125.247 28.6783L125.199 29.8847C125.184 30.256 124.907 30.5656 124.539 30.6203L123.511 30.7744C123.367 31.264 123.158 31.7349 122.887 32.1791L123.495 33.1528C123.691 33.4677 123.636 33.88 123.362 34.1323L122.476 34.9517C122.202 35.204 121.788 35.2256 121.489 35.005L120.585 34.3373C120.347 34.4638 120.122 34.5651 119.902 34.6462C119.701 34.7206 119.488 34.7826 119.242 34.84L118.959 36.0574C118.875 36.4191 118.545 36.6715 118.173 36.6567L116.967 36.6087C116.595 36.5939 116.286 36.316 116.231 35.9482L116.045 34.7098C115.634 34.5752 115.239 34.3957 114.867 34.1757L113.699 34.9036C113.384 35.0997 112.971 35.0452 112.719 34.7719L111.9 33.8846C111.648 33.6119 111.626 33.1965 111.847 32.8977L112.645 31.8184C112.523 31.5856 112.427 31.3725 112.348 31.159C112.292 31.005 112.243 30.8501 112.201 30.6949L110.794 30.3688C110.432 30.2844 110.18 29.9543 110.195 29.583L110.243 28.3761C110.258 28.0048 110.535 27.6957 110.903 27.6404L112.239 27.44C112.357 27.0461 112.512 26.6708 112.702 26.319L111.948 25.108C111.751 24.7925 111.807 24.3803 112.08 24.1284L112.967 23.3097C113.24 23.0573 113.655 23.0346 113.954 23.2557L114.97 24.0081C115.25 23.8492 115.54 23.7135 115.835 23.6047C115.951 23.5621 116.067 23.5247 116.184 23.4907L116.483 22.2039C116.567 21.8422 116.898 21.5898 117.269 21.6046ZM120.738 24.6352L120.593 24.5498C120.121 24.2689 119.609 24.0632 119.072 23.9377L118.889 23.8946L118.665 22.3942C118.649 22.2884 118.56 22.2093 118.454 22.205L117.247 22.157C117.141 22.1528 117.046 22.2252 117.022 22.3288L116.648 23.9367L116.489 23.9798C116.334 24.0215 116.18 24.0671 116.027 24.1235C115.708 24.241 115.395 24.3929 115.097 24.5749L114.938 24.6715L113.625 23.7004C113.54 23.6384 113.421 23.6439 113.342 23.7158L112.455 24.5351C112.376 24.607 112.361 24.7258 112.417 24.8162L113.346 26.3059L113.262 26.4499C113.029 26.8517 112.848 27.2925 112.723 27.7589L112.676 27.9339L110.985 28.1873C110.88 28.203 110.8 28.2914 110.796 28.3981L110.748 29.605C110.744 29.7117 110.816 29.8062 110.92 29.8302L112.655 30.2325L112.695 30.3973C112.742 30.5885 112.798 30.7789 112.867 30.9682C112.953 31.2013 113.063 31.4359 113.213 31.7075L113.3 31.8633L112.291 33.2264C112.228 33.312 112.234 33.4311 112.306 33.5091L113.126 34.3963C113.198 34.4748 113.316 34.4903 113.407 34.4348L114.868 33.5241L115.014 33.6169C115.435 33.8838 115.892 34.0914 116.371 34.2321L116.541 34.2821L116.778 35.8665C116.793 35.9723 116.882 36.0515 116.989 36.0557L118.195 36.1038C118.302 36.108 118.397 36.0356 118.421 35.9319L118.782 34.373L118.955 34.3373C119.25 34.2756 119.489 34.209 119.711 34.1268C119.952 34.0386 120.2 33.9212 120.473 33.7688L120.629 33.6818L121.817 34.5604C121.903 34.6235 122.022 34.618 122.1 34.5449L122.987 33.7256C123.066 33.6537 123.081 33.5361 123.025 33.4457L122.234 32.1752L122.329 32.0278C122.647 31.5372 122.882 31.0092 123.025 30.4583L123.071 30.281L124.457 30.0735C124.562 30.0578 124.642 29.9694 124.646 29.8627L124.694 28.6563C124.698 28.5496 124.626 28.4546 124.522 28.4306L123.098 28.1004L123.059 27.9322C123.001 27.6803 122.941 27.4738 122.871 27.2828C122.749 26.9533 122.593 26.6332 122.407 26.3307L122.31 26.1721L123.151 25.0343C123.215 24.9487 123.208 24.8297 123.136 24.7517L122.317 23.8645C122.244 23.7854 122.126 23.7699 122.036 23.826L120.738 24.6352ZM117.962 26.7905C119.249 26.8418 120.256 27.9309 120.204 29.2185C120.153 30.506 119.063 31.5122 117.776 31.461C116.488 31.4097 115.483 30.32 115.534 29.0325C115.585 27.745 116.674 26.7393 117.962 26.7905ZM117.798 30.908C118.781 30.9472 119.612 30.1797 119.651 29.1964C119.691 28.2138 118.923 27.382 117.94 27.3429C116.957 27.3038 116.126 28.0718 116.087 29.0545C116.048 30.0378 116.815 30.8689 117.798 30.908Z" fill="#6D9091"/>
<path d="M87.9099 107.273L84.3864 116.533C84.2844 116.803 84.2964 117.101 84.4224 117.361C87.0174 122.737 115.27 179.236 156.337 178.523C199.454 177.775 230.266 124.115 228.448 116.305C226.63 108.494 186.809 68.9137 160.73 71.6797C135.784 74.3257 92.0364 104.2 88.2834 106.79C88.1094 106.91 87.9849 107.075 87.9099 107.273Z" fill="#7CCCCE"/>
<path d="M155.562 179.562C114.487 179.566 86.5604 124.164 83.4929 117.808C83.2454 117.298 83.2184 116.698 83.4209 116.166L86.9444 106.905C87.0944 106.51 87.3524 106.177 87.6944 105.94C92.5244 102.607 135.595 73.3064 160.621 70.6513C187.555 67.7998 227.476 107.574 229.452 116.07C230.455 120.384 223.942 133.288 214.933 144.84C204.982 157.597 184.138 179.071 156.354 179.554C156.091 179.559 155.824 179.562 155.562 179.562ZM88.8749 107.638L85.3514 116.898C88.3814 123.184 116.035 178.186 156.319 177.489C183.244 177.022 203.58 156.037 213.304 143.569C223.053 131.073 228.106 119.403 227.44 116.538C225.778 109.39 186.786 69.9689 160.84 72.7049C136.321 75.3059 93.6539 104.338 88.8704 107.64C88.8719 107.64 88.8734 107.638 88.8749 107.638Z" fill="#6D9091"/>
<path d="M178.502 145.407V126.927H133.399V145.407C133.399 155.667 125.081 163.983 114.823 163.983H102.319C92.0589 163.983 83.7429 172.301 83.7429 182.559V236.517H228.157V182.559C228.157 172.301 219.841 163.983 209.581 163.983H197.078C186.818 163.983 178.502 155.667 178.502 145.407Z" fill="#D6F3F4"/>
<path d="M228.157 237.549H83.7429C83.1729 237.549 82.7109 237.087 82.7109 236.517V182.559C82.7109 171.747 91.5069 162.951 102.319 162.951H114.821C124.495 162.951 132.365 155.081 132.365 145.407V126.929C132.365 126.359 132.827 125.895 133.397 125.895H178.502C179.072 125.895 179.534 126.359 179.534 126.929V145.407C179.534 155.081 187.403 162.951 197.077 162.951H209.581C220.393 162.951 229.189 171.747 229.189 182.559V236.517C229.189 237.087 228.727 237.549 228.157 237.549ZM84.7764 235.485H227.123V182.559C227.123 172.886 219.254 165.017 209.581 165.017H197.077C186.265 165.017 177.469 156.219 177.469 145.407V127.961H134.431V145.407C134.431 156.219 125.633 165.017 114.821 165.017H102.319C92.6454 165.017 84.7764 172.886 84.7764 182.559V235.485Z" fill="#6D9091"/>
<path d="M155.153 147.154C134.48 147.154 117.72 130.395 117.72 109.722V79.2538C117.72 58.5808 134.48 41.8213 155.153 41.8213C175.826 41.8213 192.585 58.5808 192.585 79.2538V109.722C192.585 130.395 175.826 147.154 155.153 147.154Z" fill="#D6F3F4"/>
<path d="M122.101 94.0375C124.31 98.464 123.4 103.403 120.065 105.067C116.731 106.73 112.238 104.491 110.029 100.064C107.819 95.638 108.73 90.6985 112.064 89.035C115.399 87.3715 119.891 89.611 122.101 94.0375Z" fill="#D6F3F4"/>
<path d="M188.812 94.0375C186.602 98.464 187.513 103.403 190.847 105.067C194.182 106.73 198.674 104.491 200.884 100.064C203.093 95.638 202.183 90.6985 198.848 89.035C195.514 87.3715 191.021 89.611 188.812 94.0375Z" fill="#D6F3F4"/>
<path d="M155.153 148.075C134.004 148.075 116.801 130.87 116.801 109.723V106.453C113.783 106.079 110.874 103.82 109.205 100.475C108.047 98.1561 107.642 95.6241 108.063 93.3471C108.501 90.9726 109.776 89.1486 111.653 88.2126C113.598 87.2406 115.908 87.3696 118.154 88.5756C118.602 88.8156 118.77 89.3736 118.53 89.8206C118.29 90.2691 117.734 90.4371 117.285 90.1971C115.58 89.2821 113.87 89.1636 112.475 89.8596C111.128 90.5316 110.202 91.8891 109.872 93.6816C109.524 95.5686 109.872 97.6896 110.852 99.6531C112.356 102.668 115.124 104.753 117.714 104.668C118.017 104.69 118.194 104.762 118.368 104.935C118.542 105.107 118.64 105.343 118.64 105.587V109.723C118.64 129.856 135.02 146.236 155.153 146.236C175.286 146.236 191.666 129.856 191.666 109.723V105.544C191.666 105.281 191.777 105.031 191.973 104.857C192.168 104.681 192.429 104.603 192.692 104.629C195.42 104.963 198.44 102.898 200.06 99.6531C201.039 97.6896 201.387 95.5686 201.039 93.6816C200.708 91.8891 199.784 90.5316 198.437 89.8596C196.895 89.0886 194.942 89.3346 193.083 90.5331C192.657 90.8061 192.087 90.6861 191.811 90.2571C191.537 89.8296 191.66 89.2626 192.087 88.9866C194.505 87.4296 197.12 87.1446 199.259 88.2126C201.135 89.1486 202.41 90.9726 202.848 93.3471C203.268 95.6241 202.863 98.1561 201.707 100.475C199.94 104.017 196.677 106.366 193.505 106.495V109.723C193.505 130.87 176.301 148.075 155.153 148.075Z" fill="#6D9091"/>
<path d="M180.934 91.1586C180.787 91.1586 180.638 91.1241 180.5 91.0506C172.75 86.8956 165.719 89.1171 165.65 89.1411C165.166 89.3016 164.648 89.0376 164.489 88.5546C164.33 88.0731 164.591 87.5541 165.073 87.3951C165.389 87.2916 172.895 84.8886 181.369 89.4291C181.817 89.6691 181.985 90.2271 181.745 90.6741C181.58 90.9846 181.262 91.1586 180.934 91.1586Z" fill="#6D9091"/>
<path d="M131.437 91.1596C131.108 91.1596 130.79 90.9841 130.625 90.6736C130.385 90.2266 130.553 89.6686 131.002 89.4286C139.475 84.8896 146.983 87.2911 147.298 87.3946C147.779 87.5536 148.039 88.0741 147.881 88.5556C147.721 89.0371 147.205 89.2981 146.72 89.1421C146.651 89.1181 139.621 86.8966 131.87 91.0501C131.732 91.1236 131.584 91.1596 131.437 91.1596Z" fill="#6D9091"/>
<path d="M156.414 123.104C156.309 123.104 156.203 123.09 156.096 123.06C154.947 122.742 149.195 120.999 148.7 117.786C148.47 116.298 149.333 114.909 151.265 113.657C155.16 111.132 155.445 99.9106 155.226 95.8006C155.192 95.1436 155.693 94.5841 156.35 94.5496C157.008 94.5046 157.568 95.0176 157.602 95.6731C157.691 97.3261 158.304 111.93 152.559 115.653C151.53 116.321 150.981 116.966 151.052 117.423C151.236 118.628 154.469 120.138 156.731 120.767C157.364 120.942 157.736 121.598 157.56 122.231C157.415 122.759 156.936 123.104 156.414 123.104Z" fill="#6D9091"/>
<path d="M162.737 135.497H147.008C146.5 135.497 146.089 135.086 146.089 134.577C146.089 134.069 146.5 133.658 147.008 133.658H162.737C163.246 133.658 163.657 134.069 163.657 134.577C163.657 135.086 163.246 135.497 162.737 135.497Z" fill="#6D9091"/>
<path d="M196.663 92.7295H114.25V96.196H126.15C126.532 103.232 132.342 108.824 139.474 108.824H140.673C147.018 108.824 152.314 104.399 153.678 98.47C153.978 97.1635 155.073 96.196 156.414 96.196C157.755 96.196 158.848 97.1635 159.148 98.47C160.512 104.399 165.81 108.824 172.153 108.824H173.352C180.484 108.824 186.295 103.232 186.678 96.196H196.663V92.7295Z" fill="#CEE2E2"/>
<g opacity="0.5">
<path d="M228.447 116.304C226.629 108.493 175.933 85.7278 149.854 88.4938C124.908 91.1398 92.0369 104.199 88.2839 106.789C88.1084 106.909 87.9839 107.074 87.9089 107.272L84.3869 116.532C84.2849 116.802 84.2969 117.1 84.4229 117.36C84.7199 117.976 85.3574 119.269 86.3114 121.068C86.9684 122.307 132.939 99.3088 156.375 98.2108C175.023 97.3363 216.807 106.515 226.369 124.396C228.031 120.606 228.774 117.706 228.447 116.304Z" fill="#6D9091"/>
</g>
<path d="M173.351 109.746H172.152C165.465 109.746 159.75 105.195 158.252 98.6771C158.04 97.7591 157.283 97.1171 156.411 97.1171C155.54 97.1171 154.784 97.7591 154.572 98.6771C153.074 105.195 147.357 109.746 140.67 109.746H139.473C132.191 109.746 126.126 104.266 125.303 97.1171H114.248C113.739 97.1171 113.328 96.7061 113.328 96.1976V92.7296C113.328 92.221 113.739 91.8101 114.248 91.8101H196.662C197.171 91.8101 197.582 92.221 197.582 92.7296V96.1976C197.582 96.7061 197.171 97.1171 196.662 97.1171H187.521C186.698 104.266 180.633 109.746 173.351 109.746ZM156.411 95.2766C158.145 95.2766 159.639 96.5066 160.044 98.2661C161.349 103.942 166.328 107.905 172.152 107.905H173.351C179.949 107.905 185.399 102.739 185.757 96.1466C185.784 95.659 186.188 95.2766 186.677 95.2766H195.743V93.6491H115.167V95.2766H126.147C126.636 95.2766 127.038 95.659 127.065 96.1466C127.424 102.739 132.875 107.905 139.473 107.905H140.67C146.495 107.905 151.475 103.942 152.78 98.2661C153.185 96.5066 154.677 95.2766 156.411 95.2766Z" fill="#6D9091"/>
<path d="M156.291 93.8528C181.155 93.8528 212.457 102.641 228.484 116.305C218.305 66.0968 183.153 31.9673 156.291 31.9673C133.569 31.9673 95.2634 66.3923 84.2654 116.951C101.341 102.917 135.018 93.8528 156.291 93.8528Z" fill="#8BEAED"/>
<path d="M84.2655 117.984C84.0795 117.984 83.8935 117.933 83.727 117.831C83.3505 117.602 83.163 117.162 83.256 116.732C94.6485 64.3576 134.122 30.9346 156.291 30.9346C183.307 30.9346 219.169 65.1556 229.497 116.099C229.584 116.531 229.389 116.97 229.009 117.194C228.63 117.416 228.151 117.375 227.815 117.09C212.724 104.223 182.643 94.8856 156.291 94.8856C135.259 94.8856 101.562 104.073 84.921 117.749C84.732 117.905 84.4995 117.984 84.2655 117.984ZM156.291 33.0001C135.196 33.0001 97.8555 64.5946 85.9185 114.356C103.984 101.003 135.891 92.8201 156.291 92.8201C181.818 92.8201 210.84 101.486 226.869 113.679C216.024 65.2921 181.993 33.0001 156.291 33.0001Z" fill="#6D9091"/>
<path d="M159.349 184.53L127.994 157.931C127.994 157.931 108.629 157.854 92.0394 165.161C55.4274 181.286 21.4449 236.516 60.5634 236.516C92.3214 236.516 159.349 236.516 159.349 236.516V184.53Z" fill="#7CCCCE"/>
<path d="M159.348 237.547H60.5644C47.5279 237.547 43.5304 231.558 42.4729 226.533C38.8129 209.14 64.9954 175.942 91.6234 164.215C108.072 156.97 127.448 156.897 127.989 156.897C127.994 156.897 128 156.897 128 156.897C128.243 156.897 128.477 156.984 128.663 157.141L160.017 183.741C160.248 183.937 160.382 184.225 160.382 184.528V236.515C160.382 237.085 159.918 237.547 159.348 237.547ZM127.62 158.965C124.868 159.006 107.399 159.525 92.4559 166.105C66.5449 177.517 40.9939 209.481 44.4934 226.108C45.8029 232.329 51.2104 235.483 60.5644 235.483H158.316V185.007L127.62 158.965Z" fill="#6D9091"/>
<path d="M152.057 184.53L183.411 157.931C183.411 157.931 202.776 157.854 219.366 165.161C255.978 181.286 289.961 236.516 250.842 236.516C219.084 236.516 152.057 236.516 152.057 236.516V184.53Z" fill="#7CCCCE"/>
<path d="M250.844 237.547H152.058C151.488 237.547 151.026 237.085 151.026 236.515V184.528C151.026 184.225 151.16 183.937 151.391 183.741L182.744 157.141C182.93 156.984 183.165 156.897 183.408 156.897C183.6 156.867 203.177 156.901 219.783 164.215C246.411 175.942 272.594 209.139 268.934 226.533C267.876 231.558 263.88 237.547 250.844 237.547ZM153.092 235.483H250.844C260.198 235.483 265.604 232.329 266.913 226.108C270.413 209.481 244.862 177.517 218.951 166.105C204.008 159.525 186.539 159.006 183.786 158.965L153.092 185.007V235.483Z" fill="#6D9091"/>
<path d="M276.569 262.684C276.293 262.684 276.027 262.573 275.832 262.37C275.601 262.13 275.501 261.794 275.565 261.467C275.771 260.405 277.653 251.023 280.16 248.611C281.49 247.33 283.236 246.634 285.089 246.679C286.935 246.715 288.657 247.466 289.938 248.798C291.219 250.129 291.905 251.881 291.869 253.729C291.833 255.575 291.081 257.297 289.749 258.578C287.243 260.99 277.794 262.507 276.725 262.672C276.672 262.679 276.621 262.684 276.569 262.684ZM284.952 248.722C283.686 248.722 282.492 249.203 281.577 250.084C280.223 251.387 278.715 256.606 277.875 260.405C281.705 259.712 286.977 258.409 288.332 257.105C289.269 256.204 289.8 254.989 289.826 253.688C289.851 252.386 289.368 251.155 288.465 250.217C287.564 249.28 286.349 248.749 285.048 248.723C285.015 248.722 284.985 248.722 284.952 248.722Z" fill="#2CEFF6"/>
<path d="M272.021 277.279H257.78C252.343 277.279 247.934 272.872 247.934 267.435V240.379H281.867V267.435C281.867 272.872 277.459 277.279 272.021 277.279Z" fill="#5CE1E6"/>
<path d="M272.021 277.279H257.78C252.343 277.279 247.934 272.872 247.934 267.435V240.379H281.867V267.435C281.867 272.872 277.459 277.279 272.021 277.279Z" fill="#9DF2F5"/>
<path d="M279.642 240.379V264.916C279.642 270.354 275.233 274.762 269.796 274.762H255.555C253.224 274.762 251.082 273.951 249.396 272.596C251.13 275.407 254.236 277.279 257.781 277.279H272.022C277.459 277.279 281.868 272.872 281.868 267.435V240.379H279.642Z" fill="#2CEFF6"/>
<path d="M251.044 261.71C250.753 261.71 250.517 261.474 250.517 261.183V256.311C250.517 256.02 250.753 255.785 251.044 255.785C251.335 255.785 251.57 256.02 251.57 256.311V261.183C251.57 261.474 251.335 261.71 251.044 261.71Z" fill="white"/>
<path d="M251.044 255.01C250.753 255.01 250.517 254.774 250.517 254.483V245.924C250.517 245.633 250.753 245.398 251.044 245.398C251.335 245.398 251.57 245.633 251.57 245.924V254.483C251.57 254.774 251.335 255.01 251.044 255.01Z" fill="white"/>
<path d="M272.021 277.88H257.782C252.022 277.88 247.334 273.192 247.334 267.432V240.377C247.334 240.044 247.603 239.775 247.936 239.775H281.867C282.2 239.775 282.469 240.044 282.469 240.377V267.432C282.469 273.192 277.781 277.88 272.021 277.88ZM248.537 240.978V267.432C248.537 272.529 252.685 276.677 257.782 276.677H272.021C277.118 276.677 281.266 272.529 281.266 267.432V240.978H248.537Z" fill="#90BEC0"/>
<path d="M282.301 244.159H246.457C245.062 244.159 243.932 243.029 243.932 241.634C243.932 240.239 245.062 239.11 246.457 239.11H282.301C283.696 239.11 284.825 240.239 284.825 241.634C284.825 243.029 283.696 244.159 282.301 244.159Z" fill="#9DF2F5"/>
<path d="M282.301 244.61H246.458C244.817 244.61 243.482 243.275 243.482 241.634C243.482 239.993 244.817 238.658 246.458 238.658H282.301C283.942 238.658 285.277 239.993 285.277 241.634C285.277 243.275 283.942 244.61 282.301 244.61ZM246.458 239.56C245.315 239.56 244.385 240.491 244.385 241.634C244.385 242.777 245.315 243.707 246.458 243.707H282.301C283.444 243.707 284.374 242.777 284.374 241.634C284.374 240.491 283.444 239.56 282.301 239.56H246.458Z" fill="#90BEC0"/>
<path d="M257.172 218.403C257.146 218.403 257.119 218.397 257.095 218.383L256.89 218.263C256.589 218.087 256.422 217.763 256.454 217.416C256.486 217.069 256.709 216.78 257.038 216.662C257.239 216.59 257.379 216.421 257.413 216.21C257.446 215.999 257.367 215.794 257.198 215.663L256.769 215.328C256.702 215.275 256.69 215.178 256.743 215.111C256.795 215.044 256.892 215.032 256.96 215.085L257.388 215.419C257.646 215.621 257.77 215.935 257.718 216.259C257.666 216.582 257.451 216.842 257.142 216.953C256.925 217.031 256.783 217.214 256.762 217.444C256.74 217.674 256.847 217.88 257.046 217.996L257.251 218.116C257.324 218.159 257.349 218.254 257.306 218.327C257.277 218.376 257.226 218.403 257.172 218.403Z" fill="#90BEC0"/>
<path d="M265.223 226.834C265.121 226.834 265.016 226.807 264.921 226.752L264.125 226.288C262.953 225.604 262.302 224.34 262.427 222.99C262.551 221.638 263.42 220.516 264.698 220.057C265.479 219.775 266.027 219.118 266.159 218.296C266.291 217.476 265.977 216.679 265.322 216.166L263.654 214.863C263.393 214.659 263.346 214.281 263.55 214.018C263.754 213.757 264.131 213.709 264.395 213.915L266.064 215.218C267.069 216.004 267.549 217.227 267.347 218.487C267.144 219.747 266.306 220.756 265.104 221.188C264.258 221.491 263.708 222.205 263.625 223.099C263.543 223.993 263.955 224.796 264.731 225.249L265.527 225.714C265.814 225.88 265.911 226.249 265.743 226.536C265.632 226.728 265.43 226.834 265.223 226.834Z" fill="#90BEC0"/>
<path d="M257.106 289.551H172.803C171.616 289.551 170.655 290.42 170.655 291.491C170.655 292.695 169.696 293.672 168.513 293.672H145.989C144.805 293.672 143.847 292.695 143.847 291.491C143.847 290.42 142.885 289.551 141.699 289.551H57.3959C56.4254 289.551 55.6379 290.262 55.6379 291.138V292.607C55.6379 297.147 59.7134 300.828 64.7444 300.828H249.757C254.787 300.828 258.864 297.147 258.864 292.607V291.138C258.864 290.262 258.076 289.551 257.106 289.551Z" fill="#90BEC0"/>
<path d="M249.756 302.025H64.7445C59.0625 302.025 54.4395 297.799 54.4395 292.606V291.139C54.4395 289.605 55.7655 288.355 57.3945 288.355H141.699C143.544 288.355 145.042 289.762 145.042 291.49C145.042 292.033 145.467 292.476 145.989 292.476H168.511C169.033 292.476 169.458 292.033 169.458 291.49C169.458 289.762 170.959 288.355 172.803 288.355H257.106C258.735 288.355 260.061 289.605 260.061 291.139V292.606C260.061 297.799 255.438 302.025 249.756 302.025ZM57.3945 290.748C57.063 290.748 56.8335 290.955 56.8335 291.139V292.606C56.8335 296.479 60.3825 299.631 64.7445 299.631H249.756C254.118 299.631 257.667 296.479 257.667 292.606V291.139C257.667 290.955 257.437 290.748 257.106 290.748H172.803C172.287 290.748 171.852 291.088 171.852 291.49C171.852 293.353 170.352 294.87 168.511 294.87H145.989C144.147 294.87 142.65 293.353 142.65 291.49C142.65 291.088 142.215 290.748 141.699 290.748H57.3945Z" fill="#6D9091"/>
<path d="M245.458 300.827H69.0435C66.5355 300.827 64.5015 298.793 64.5015 296.285V191.795C64.5015 189.287 66.5355 187.253 69.0435 187.253H245.458C247.966 187.253 250 189.287 250 191.795V296.285C250 298.793 247.966 300.827 245.458 300.827Z" fill="#D9F5F6"/>
<path d="M213.455 300.828L250 260.25V248.655L203.014 300.828H213.455Z" fill="#E6F8F9"/>
<path d="M163.277 300.828H178.94L250.001 221.925V204.969C249.504 205.263 249.032 205.61 248.625 206.061L163.277 300.828Z" fill="#E6F8F9"/>
<path d="M64.5005 256.488V270.014L139.035 187.253H126.855L64.5005 256.488Z" fill="#E6F8F9"/>
<path d="M64.5005 237.356L109.623 187.253H100.923L64.5005 227.694V237.356Z" fill="#E6F8F9"/>
<path d="M245.458 302.025H69.0434C65.8784 302.025 63.3044 299.449 63.3044 296.286V191.796C63.3044 188.632 65.8784 186.057 69.0434 186.057H245.458C248.622 186.057 251.197 188.632 251.197 191.796V296.286C251.197 299.449 248.622 302.025 245.458 302.025ZM69.0434 188.451C67.1984 188.451 65.6969 189.951 65.6969 191.796V296.286C65.6969 298.131 67.1984 299.631 69.0434 299.631H245.458C247.303 299.631 248.803 298.131 248.803 296.286V191.796C248.803 189.951 247.303 188.451 245.458 188.451H69.0434Z" fill="#6D9091"/>
<path d="M149.211 253.224C149.206 253.381 149.156 253.536 149.058 253.672L142.99 261.978C142.85 262.17 142.632 262.289 142.394 262.306L134.247 262.86L132.944 265.348C132.737 265.742 132.251 265.892 131.857 265.685C131.464 265.478 131.313 264.994 131.518 264.599L133.032 261.714C133.161 261.468 133.41 261.305 133.689 261.285L141.91 260.725L147.757 252.723C148.019 252.364 148.522 252.285 148.882 252.547C149.105 252.71 149.219 252.967 149.211 253.224Z" fill="#6D9091"/>
<path d="M154.45 256.914C154.447 256.997 154.431 257.079 154.401 257.162L150.906 266.836C150.826 267.058 150.651 267.236 150.427 267.317L142.765 270.134L142.209 272.887C142.122 273.322 141.696 273.604 141.26 273.517C140.825 273.43 140.541 273.012 140.63 272.568L141.275 269.375C141.33 269.101 141.523 268.876 141.786 268.779L149.52 265.936L152.888 256.614C153.039 256.196 153.499 255.979 153.918 256.131C154.255 256.252 154.461 256.576 154.45 256.914Z" fill="#6D9091"/>
<path d="M167.002 272.797C167.001 272.836 166.998 272.877 166.991 272.917L166.505 275.55C166.425 275.987 166.006 276.277 165.569 276.197C165.132 276.117 164.842 275.7 164.922 275.26L165.317 273.108L157.897 267.372C157.667 267.197 157.548 266.912 157.592 266.623L158.799 258.02C158.861 257.579 159.267 257.272 159.708 257.334C160.148 257.396 160.448 257.797 160.395 258.243L159.252 266.384L166.69 272.134C166.897 272.294 167.01 272.542 167.002 272.797Z" fill="#6D9091"/>
<path d="M180.083 271.238C180.069 271.665 179.722 272.01 179.29 272.016C178.845 272.023 178.48 271.667 178.473 271.223L178.442 269.035L170.046 264.856C169.787 264.728 169.617 264.47 169.601 264.182L169.106 255.507C169.076 255.057 169.421 254.682 169.864 254.657C170.308 254.632 170.689 254.973 170.714 255.417L171.181 263.623L179.599 267.813C179.869 267.948 180.041 268.22 180.045 268.522L180.083 271.199C180.084 271.213 180.083 271.226 180.083 271.238Z" fill="#6D9091"/>
<path d="M149.025 235.992C149.017 236.226 148.909 236.455 148.709 236.608C148.356 236.879 147.852 236.81 147.581 236.457L141.563 228.582L133.331 228.2C133.052 228.188 132.801 228.03 132.665 227.786L131.088 224.935C130.87 224.548 131.014 224.056 131.403 223.841C131.793 223.626 132.282 223.766 132.498 224.156L133.856 226.612L142.011 226.992C142.249 227.004 142.471 227.117 142.615 227.306L148.861 235.478C148.978 235.632 149.03 235.814 149.025 235.992Z" fill="#6D9091"/>
<path d="M154.182 232.19C154.172 232.504 153.978 232.796 153.667 232.915C153.252 233.076 152.786 232.869 152.627 232.454L149.057 223.207L141.263 220.535C140.999 220.444 140.801 220.221 140.74 219.949L140.026 216.77C139.929 216.334 140.202 215.906 140.636 215.808C141.07 215.711 141.5 215.983 141.597 216.417L142.212 219.157L149.935 221.807C150.159 221.884 150.338 222.057 150.424 222.278L154.128 231.875C154.168 231.978 154.186 232.085 154.182 232.19Z" fill="#6D9091"/>
<path d="M166.39 216.037C166.383 216.268 166.277 216.49 166.092 216.639L158.779 222.549L160.097 230.662C160.169 231.105 159.868 231.516 159.431 231.586C158.992 231.658 158.578 231.36 158.507 230.921L157.115 222.346C157.067 222.058 157.178 221.773 157.403 221.591L164.698 215.696L164.255 213.553C164.167 213.117 164.445 212.692 164.881 212.602C165.317 212.513 165.743 212.792 165.833 213.228L166.374 215.849C166.387 215.913 166.392 215.974 166.39 216.037Z" fill="#6D9091"/>
<path d="M179.518 219.994C179.509 220.283 179.344 220.545 179.088 220.681L170.764 225.053L170.474 233.268C170.459 233.711 170.085 234.058 169.641 234.043C169.197 234.027 168.852 233.657 168.866 233.213L168.866 233.21L169.172 224.528C169.183 224.24 169.347 223.978 169.602 223.844L177.906 219.484L177.89 217.297C177.888 216.84 178.244 216.49 178.689 216.486C179.133 216.482 179.498 216.84 179.501 217.285L179.519 219.963C179.52 219.973 179.518 219.984 179.518 219.994Z" fill="#6D9091"/>
<path d="M143.59 235.555C149.224 235.475 153.848 239.472 153.92 244.486C153.992 249.499 149.484 253.627 143.851 253.708C138.218 253.788 133.593 249.79 133.521 244.777C133.45 239.764 137.957 235.636 143.59 235.555Z" fill="#8BEAED"/>
<path d="M154.336 244.874C154.176 249.932 149.565 254.047 143.857 254.128C138.002 254.212 133.176 250.02 133.1 244.783C133.056 239.553 137.73 235.219 143.585 235.135C149.439 235.051 154.266 239.242 154.341 244.479C154.343 244.612 154.34 244.744 154.336 244.874ZM133.944 244.414C133.94 244.532 133.939 244.651 133.941 244.771C134.01 249.544 138.451 253.365 143.844 253.287C149.237 253.211 153.581 249.282 153.501 244.49C153.432 239.717 148.989 235.898 143.596 235.974C138.339 236.05 134.09 239.802 133.944 244.414Z" fill="#6D9091"/>
<path d="M161.681 227.249C172.345 227.095 181.102 234.667 181.239 244.158C181.375 253.649 172.838 261.466 162.173 261.62C151.509 261.773 142.752 254.201 142.616 244.711C142.479 235.22 151.016 227.402 161.681 227.249Z" fill="#94FAFD"/>
<path d="M144.136 237.802C147.612 233.716 153.082 231.04 159.275 230.952C169.94 230.798 178.697 238.369 178.833 247.859C178.868 250.31 178.322 252.645 177.314 254.77C179.824 251.82 181.295 248.137 181.238 244.158C181.101 234.668 172.345 227.097 161.68 227.251C153.767 227.364 147.032 231.697 144.136 237.802Z" fill="#93CFD1"/>
<path d="M181.707 244.886C181.408 254.291 172.815 261.941 162.182 262.094C156.907 262.17 151.919 260.41 148.138 257.14C144.34 253.857 142.211 249.445 142.144 244.718C142.013 234.985 150.765 226.932 161.674 226.774C166.949 226.699 171.937 228.459 175.718 231.729C179.516 235.012 181.647 239.424 181.714 244.151C181.717 244.397 181.715 244.641 181.707 244.886ZM143.098 244.012C143.091 244.243 143.088 244.472 143.091 244.705C143.155 249.158 145.167 253.321 148.758 256.424C152.364 259.542 157.125 261.218 162.167 261.145C172.552 260.997 180.907 253.386 180.765 244.164C180.701 239.711 178.689 235.55 175.098 232.446C171.492 229.329 166.731 227.651 161.689 227.723C151.563 227.87 143.381 235.112 143.098 244.012Z" fill="#6D9091"/>
<path d="M134.735 248.355C134.731 248.468 134.687 248.577 134.603 248.663C133.012 250.298 131.41 249.735 130.785 249.21C130.587 249.043 130.565 248.751 130.729 248.557C130.893 248.362 131.183 248.335 131.379 248.498C131.5 248.596 132.587 249.407 133.938 248.018C134.116 247.834 134.411 247.829 134.594 248.007C134.692 248.102 134.739 248.229 134.735 248.355Z" fill="#6D9091"/>
<path d="M134.657 241.144C134.653 241.257 134.609 241.368 134.524 241.455C134.344 241.638 134.051 241.64 133.868 241.46C132.443 240.058 131.346 240.991 131.3 241.031C131.107 241.201 130.815 241.181 130.646 240.99C130.476 240.798 130.494 240.505 130.687 240.335C131.302 239.795 132.891 239.198 134.518 240.799C134.614 240.894 134.661 241.02 134.657 241.144Z" fill="#6D9091"/>
</svg>
