<svg width="109" height="134" viewBox="0 0 109 134" fill="none" xmlns="http://www.w3.org/2000/svg">
<g opacity="0.2">
<path fill-rule="evenodd" clip-rule="evenodd" d="M82.9728 79.156C84.8996 76.7005 86.5752 73.9847 87.9374 71.1733C90.6021 65.6743 93.0006 57.4191 93.0686 49.7754C93.1151 44.536 92.0599 39.5863 89.3424 35.9306C84.1664 28.9676 75.2256 27.5338 65.9358 29.5233C59.1603 30.9744 52.209 34.2325 46.5016 38.3474C49.0708 33.6733 51.4538 27.6291 52.04 21.7595C52.7022 15.1798 51.1331 8.82735 45.2912 4.68056C33.0797 -3.98511 21.2649 0.354536 12.7365 9.76833C4.35992 19.0165 -0.781938 33.199 0.0974484 44.3923C0.145727 44.9841 0.645773 45.425 1.21479 45.3766C1.7838 45.3282 2.20798 44.8088 2.1597 44.2173C1.32514 33.5521 6.26009 20.0546 14.2436 11.2431C22.0753 2.59747 32.9108 -1.50164 44.1221 6.45677C49.2674 10.1092 50.5675 15.7408 49.9847 21.5366C49.3777 27.566 46.7603 33.7823 44.1048 38.3449C43.3875 39.5805 42.6771 40.8269 41.9495 42.0633C38.3733 45.3795 35.68 49.0151 34.3764 52.5847C34.0557 53.4712 34.6143 53.8792 34.7764 53.9857C34.9971 54.1312 35.3523 54.2721 35.811 54.0373C35.8972 53.9932 36.0593 53.8846 36.2386 53.6914C36.48 53.4272 36.9249 52.8389 37.1422 52.5948C38.0457 51.5875 38.8768 50.483 39.6838 49.3962C41.0908 47.507 42.3426 45.5003 43.5462 43.4635C43.8669 43.172 44.191 42.8838 44.5221 42.5985C50.464 37.4921 58.5303 33.3051 66.353 31.6297C74.8066 29.8194 82.9953 30.9098 87.705 37.2458C90.1566 40.5437 91.0415 45.0289 90.9994 49.7557C90.9346 57.0613 88.6364 64.9502 86.0897 70.2057C84.534 73.4158 82.55 76.4962 80.2371 79.1725C79.4694 80.0608 78.5983 80.8709 77.7261 81.6477C77.6303 81.7331 77.4885 81.8507 77.3261 81.9815C76.8388 82.3206 76.3695 82.6791 75.9194 83.0573C75.6825 83.2566 75.598 83.3928 75.5829 83.4175C75.1832 84.0674 75.5187 84.5295 75.6925 84.7259C75.7442 84.7844 76.2995 85.3744 77.0299 84.8948C77.1778 84.7973 77.9696 84.19 78.5659 83.7061C83.7653 80.1185 91.0829 79.0015 97.0224 80.586C100.788 81.5908 104.005 83.6874 105.684 87.0101C106.8 89.2197 107.225 91.9606 106.718 95.2488C105.495 103.179 101.141 109.821 95.7823 115.733C90.3 121.78 83.7601 127.061 78.2879 132.121C77.8613 132.516 77.8231 133.196 78.2027 133.64C78.5821 134.083 79.2366 134.123 79.6632 133.728C85.1778 128.629 91.7633 123.301 97.2883 117.208C102.936 110.978 107.472 103.947 108.761 95.5894C109.351 91.7638 108.815 88.5806 107.516 86.01C105.572 82.1632 101.896 79.6658 97.5369 78.5029C92.9817 77.2877 87.6871 77.5397 82.9728 79.156Z" fill="white"/>
</g>
</svg>
