<svg width="1290" height="446" viewBox="0 0 1290 446" fill="none" xmlns="http://www.w3.org/2000/svg">
<path d="M1290 290C1290 304.898 1290 312.348 1287.83 318.313C1284.19 328.312 1276.31 336.189 1266.31 339.829C1260.35 342 1252.9 342 1238 342C1223.1 342 1215.65 342 1209.69 344.171C1199.69 347.811 1191.81 355.688 1188.17 365.687C1186 371.652 1186 379.101 1186 394C1186 408.899 1186 416.348 1183.83 422.313C1180.19 432.312 1172.31 440.189 1162.31 443.829C1156.35 446 1148.9 446 1134 446H555C543.402 446 534 436.598 534 425C534 413.402 524.598 404 513 404H296C284.402 404 275 413.402 275 425C275 436.598 265.598 446 254 446H72C38.0589 446 21.0883 446 10.5442 435.456C0 424.912 0 407.941 0 374V144C0 110.059 0 93.0883 10.5442 82.5442C21.0883 72 38.0589 72 72 72H110C129.882 72 146 55.8823 146 36C146 16.1178 162.118 0 182 0H796.5C805.613 0 813 7.3873 813 16.5C813 25.6127 820.387 33 829.5 33H910.5C919.613 33 927 25.6127 927 16.5C927 7.3873 934.387 0 943.5 0H1218C1251.94 0 1268.91 0 1279.46 10.5442C1290 21.0883 1290 38.0589 1290 72V290Z" fill="url(#paint0_linear_1_72)"/>
<mask id="mask0_1_72" style="mask-type:alpha" maskUnits="userSpaceOnUse" x="0" y="0" width="1290" height="446">
<path d="M1290 290C1290 304.898 1290 312.348 1287.83 318.313C1284.19 328.312 1276.31 336.189 1266.31 339.829C1260.35 342 1252.9 342 1238 342C1223.1 342 1215.65 342 1209.69 344.171C1199.69 347.811 1191.81 355.688 1188.17 365.687C1186 371.652 1186 379.101 1186 394C1186 408.899 1186 416.348 1183.83 422.313C1180.19 432.312 1172.31 440.189 1162.31 443.829C1156.35 446 1148.9 446 1134 446H555C543.402 446 534 436.598 534 425C534 413.402 524.598 404 513 404H296C284.402 404 275 413.402 275 425C275 436.598 265.598 446 254 446H72C38.0589 446 21.0883 446 10.5442 435.456C0 424.912 0 407.941 0 374V144C0 110.059 0 93.0883 10.5442 82.5442C21.0883 72 38.0589 72 72 72H110C129.882 72 146 55.8823 146 36C146 16.1178 162.118 0 182 0H796.5C805.613 0 813 7.3873 813 16.5C813 25.6127 820.387 33 829.5 33H910.5C919.613 33 927 25.6127 927 16.5C927 7.3873 934.387 0 943.5 0H1218C1251.94 0 1268.91 0 1279.46 10.5442C1290 21.0883 1290 38.0589 1290 72V290Z" fill="url(#paint1_linear_1_72)"/>
</mask>
<g mask="url(#mask0_1_72)">
<g opacity="0.1">
<path d="M58.5793 204.747L102.871 159.046C94.9969 163.689 87.7134 169.231 81.1048 175.527L74.5524 182.288C68.45 189.078 63.0788 196.622 58.5793 204.747Z" fill="url(#paint2_linear_1_72)"/>
<path d="M45.3623 241.076L138.08 145.409C135.52 145.931 132.989 146.57 130.487 147.266L47.1621 233.242C46.4591 235.824 45.8685 238.436 45.3623 241.076Z" fill="url(#paint3_linear_1_72)"/>
<path d="M43 265.391C43 265.653 43 265.914 43 266.175L162.376 143C162.123 143 161.87 143 161.617 143C159.902 143 158.186 143.058 156.471 143.116L43.1124 260.081C43.0562 261.851 43 263.592 43 265.391Z" fill="url(#paint4_linear_1_72)"/>
<path d="M44.8558 286.951L182.568 144.857C180.908 144.567 179.221 144.277 177.562 144.045L44.0964 281.757C44.2933 283.527 44.5464 285.239 44.8558 286.951Z" fill="url(#paint5_linear_1_72)"/>
<path d="M49.3555 304.998L200.031 149.528C198.569 149.006 197.107 148.541 195.644 148.077L47.9775 300.442C48.3994 301.98 48.8493 303.489 49.3555 304.998Z" fill="url(#paint6_linear_1_72)"/>
<path d="M55.9078 320.929L215.498 156.261C214.205 155.593 212.911 154.926 211.589 154.316L53.9955 316.896C54.6142 318.259 55.2328 319.594 55.9078 320.929Z" fill="url(#paint7_linear_1_72)"/>
<path d="M64.119 335.118L229.221 164.762C228.068 163.949 226.915 163.137 225.762 162.354L61.8132 331.519C62.5725 332.738 63.3316 333.928 64.119 335.118Z" fill="url(#paint8_linear_1_72)"/>
<path d="M73.8778 347.739L241.455 174.83C240.442 173.873 239.402 172.944 238.361 172.045L71.1499 344.577C72.0498 345.65 72.9498 346.695 73.8778 347.739Z" fill="url(#paint9_linear_1_72)"/>
<path d="M85.0701 358.882L252.253 186.379C251.382 185.306 250.482 184.232 249.554 183.188L81.9768 356.096C82.9892 357.054 84.0296 357.983 85.0701 358.882Z" fill="url(#paint10_linear_1_72)"/>
<path d="M97.7247 368.516L261.618 199.408C260.859 198.189 260.099 197 259.284 195.839L94.2377 366.136C95.3907 366.949 96.5436 367.761 97.7247 368.516Z" fill="url(#paint11_linear_1_72)"/>
<path d="M111.926 376.553L269.379 214.09C268.76 212.726 268.142 211.391 267.495 210.057L108.017 374.609C109.311 375.276 110.604 375.915 111.926 376.553Z" fill="url(#paint12_linear_1_72)"/>
<path d="M127.899 382.763L275.425 230.572C274.975 229.034 274.525 227.525 274.047 226.045L123.512 381.37C124.946 381.834 126.409 382.299 127.899 382.763Z" fill="url(#paint13_linear_1_72)"/>
<path d="M146.009 386.738L279.25 249.258C279.025 247.517 278.772 245.805 278.49 244.064L141.004 385.926C142.663 386.245 144.322 386.506 146.009 386.738Z" fill="url(#paint14_linear_1_72)"/>
<path d="M161.646 387.811C163.474 387.811 165.301 387.753 167.101 387.666L280.15 271.02C280.235 269.163 280.291 267.277 280.291 265.391C280.291 265.246 280.291 265.072 280.291 264.927L161.224 387.782C161.336 387.782 161.505 387.811 161.646 387.811Z" fill="url(#paint15_linear_1_72)"/>
<path d="M193.226 383.401L276.016 297.977C276.719 295.394 277.338 292.754 277.844 290.113L185.577 385.316C188.164 384.765 190.723 384.127 193.226 383.401Z" fill="url(#paint16_linear_1_72)"/>
<path d="M264.289 326.789L221.15 371.3C239.008 360.593 253.912 345.215 264.289 326.789Z" fill="url(#paint17_linear_1_72)"/>
</g>
<g opacity="0.1">
<path d="M870.125 268.091L901.752 235.458C896.129 238.773 890.928 242.731 886.209 247.227L881.53 252.054C877.173 256.903 873.338 262.29 870.125 268.091Z" fill="url(#paint18_linear_1_72)"/>
<path d="M860.687 294.033L926.893 225.721C925.066 226.094 923.258 226.549 921.471 227.047L861.972 288.439C861.47 290.283 861.048 292.148 860.687 294.033Z" fill="url(#paint19_linear_1_72)"/>
<path d="M859 311.396C859 311.582 859 311.768 859 311.955L944.243 224C944.062 224 943.881 224 943.7 224C942.476 224 941.251 224.041 940.026 224.083L859.08 307.604C859.04 308.868 859 310.111 859 311.396Z" fill="url(#paint20_linear_1_72)"/>
<path d="M860.325 326.79L958.66 225.326C957.476 225.119 956.271 224.912 955.086 224.746L859.783 323.082C859.924 324.345 860.104 325.568 860.325 326.79Z" fill="url(#paint21_linear_1_72)"/>
<path d="M863.538 339.677L971.131 228.661C970.086 228.288 969.042 227.957 967.998 227.625L862.554 336.424C862.855 337.522 863.177 338.599 863.538 339.677Z" fill="url(#paint22_linear_1_72)"/>
<path d="M868.217 351.053L982.175 233.469C981.251 232.993 980.328 232.516 979.384 232.081L866.852 348.173C867.293 349.147 867.735 350.1 868.217 351.053Z" fill="url(#paint23_linear_1_72)"/>
<path d="M874.08 361.184L991.974 239.539C991.151 238.959 990.328 238.379 989.504 237.819L872.434 358.615C872.976 359.485 873.518 360.335 874.08 361.184Z" fill="url(#paint24_linear_1_72)"/>
<path d="M881.049 370.198L1000.71 246.729C999.987 246.046 999.244 245.383 998.501 244.74L879.101 367.939C879.743 368.706 880.386 369.452 881.049 370.198Z" fill="url(#paint25_linear_1_72)"/>
<path d="M889.041 378.154L1008.42 254.975C1007.8 254.209 1007.16 253.442 1006.49 252.696L886.832 376.165C887.555 376.848 888.298 377.511 889.041 378.154Z" fill="url(#paint26_linear_1_72)"/>
<path d="M898.077 385.033L1015.11 264.279C1014.57 263.409 1014.02 262.559 1013.44 261.73L895.587 383.334C896.41 383.914 897.234 384.494 898.077 385.033Z" fill="url(#paint27_linear_1_72)"/>
<path d="M908.218 390.772L1020.65 274.763C1020.21 273.789 1019.77 272.836 1019.3 271.883L905.427 389.384C906.35 389.861 907.274 390.316 908.218 390.772Z" fill="url(#paint28_linear_1_72)"/>
<path d="M919.624 395.207L1024.97 286.532C1024.65 285.434 1024.32 284.357 1023.98 283.3L916.491 394.212C917.515 394.544 918.559 394.875 919.624 395.207Z" fill="url(#paint29_linear_1_72)"/>
<path d="M932.555 398.046L1027.7 299.876C1027.54 298.633 1027.36 297.41 1027.16 296.167L928.981 397.465C930.166 397.693 931.35 397.88 932.555 398.046Z" fill="url(#paint30_linear_1_72)"/>
<path d="M943.721 398.811C945.026 398.811 946.331 398.77 947.616 398.708L1028.34 315.415C1028.4 314.088 1028.44 312.742 1028.44 311.395C1028.44 311.291 1028.44 311.167 1028.44 311.063L943.42 398.79C943.5 398.79 943.621 398.811 943.721 398.811Z" fill="url(#paint31_linear_1_72)"/>
<path d="M966.271 395.663L1025.39 334.664C1025.89 332.82 1026.33 330.934 1026.69 329.049L960.809 397.03C962.657 396.636 964.484 396.181 966.271 395.663Z" fill="url(#paint32_linear_1_72)"/>
<path d="M1017.02 355.237L986.211 387.021C998.962 379.376 1009.61 368.394 1017.02 355.237Z" fill="url(#paint33_linear_1_72)"/>
</g>
<g opacity="0.2">
<path fill-rule="evenodd" clip-rule="evenodd" d="M1137.97 155.156C1139.9 152.7 1141.58 149.985 1142.94 147.173C1145.6 141.674 1148 133.419 1148.07 125.775C1148.12 120.536 1147.06 115.586 1144.34 111.931C1139.17 104.968 1130.23 103.534 1120.94 105.523C1114.16 106.974 1107.21 110.232 1101.5 114.347C1104.07 109.673 1106.45 103.629 1107.04 97.7595C1107.7 91.1798 1106.13 84.8273 1100.29 80.6806C1088.08 72.0149 1076.26 76.3545 1067.74 85.7683C1059.36 95.0165 1054.22 109.199 1055.1 120.392C1055.15 120.984 1055.65 121.425 1056.21 121.377C1056.78 121.328 1057.21 120.809 1057.16 120.217C1056.33 109.552 1061.26 96.0546 1069.24 87.2431C1077.08 78.5975 1087.91 74.4984 1099.12 82.4568C1104.27 86.1092 1105.57 91.7408 1104.98 97.5365C1104.38 103.566 1101.76 109.782 1099.1 114.345C1098.39 115.581 1097.68 116.827 1096.95 118.063C1093.37 121.38 1090.68 125.015 1089.38 128.585C1089.06 129.471 1089.61 129.879 1089.78 129.986C1090 130.131 1090.35 130.272 1090.81 130.037C1090.9 129.993 1091.06 129.885 1091.24 129.691C1091.48 129.427 1091.92 128.839 1092.14 128.595C1093.05 127.587 1093.88 126.483 1094.68 125.396C1096.09 123.507 1097.34 121.5 1098.55 119.463C1098.87 119.172 1099.19 118.884 1099.52 118.598C1105.46 113.492 1113.53 109.305 1121.35 107.63C1129.81 105.819 1138 106.91 1142.7 113.246C1145.16 116.544 1146.04 121.029 1146 125.756C1145.93 133.061 1143.64 140.95 1141.09 146.206C1139.53 149.416 1137.55 152.496 1135.24 155.173C1134.47 156.061 1133.6 156.871 1132.73 157.648C1132.63 157.733 1132.49 157.851 1132.33 157.981C1131.84 158.321 1131.37 158.679 1130.92 159.057C1130.68 159.257 1130.6 159.393 1130.58 159.418C1130.18 160.067 1130.52 160.53 1130.69 160.726C1130.74 160.784 1131.3 161.374 1132.03 160.895C1132.18 160.797 1132.97 160.19 1133.57 159.706C1138.77 156.119 1146.08 155.002 1152.02 156.586C1155.79 157.591 1159.01 159.687 1160.68 163.01C1161.8 165.22 1162.23 167.961 1161.72 171.249C1160.49 179.179 1156.14 185.821 1150.78 191.733C1145.3 197.78 1138.76 203.061 1133.29 208.121C1132.86 208.516 1132.82 209.196 1133.2 209.64C1133.58 210.083 1134.24 210.123 1134.66 209.728C1140.18 204.629 1146.76 199.301 1152.29 193.208C1157.94 186.978 1162.47 179.947 1163.76 171.589C1164.35 167.764 1163.81 164.581 1162.52 162.01C1160.57 158.163 1156.9 155.666 1152.54 154.503C1147.98 153.288 1142.69 153.54 1137.97 155.156Z" fill="white"/>
</g>
<g opacity="0.2">
<path fill-rule="evenodd" clip-rule="evenodd" d="M549.272 96.0019C542.3 80.8027 529.992 72.348 515.304 64.5843C512.823 63.2739 506.657 60.3007 501.282 59.4378C497.481 58.8267 494.078 59.317 492.427 61.8859C490.983 64.1298 491.432 66.8185 492.981 69.5388C496.344 75.4463 504.91 81.5675 507.674 83.2084C520.127 90.5956 534.209 95.3016 548.472 97.1384C548.888 98.0783 549.286 99.0468 549.663 100.043C550.795 103.044 551.846 106.738 551.999 110.337C552.149 113.834 551.453 117.247 549.085 119.794C544.146 125.111 534.989 125.975 524.99 124.719C522.811 124.447 520.594 124.071 518.367 123.614C517.716 122.212 516.883 120.783 515.899 119.343C508.269 108.175 491.81 96.323 486.427 93.4732C484.03 92.2041 479.65 89.8077 475.751 89.3335C472.963 88.9938 470.418 89.6208 468.865 92.0978C467.48 94.3036 467.964 96.8856 469.536 99.4809C472.932 105.085 481.455 110.8 484.329 112.478C490.864 116.297 504.273 121.887 517.563 124.698C518.802 127.551 519.176 130.243 518.22 132.583C516.892 135.837 513.2 137.349 508.537 137.891C507.131 138.054 505.637 138.129 504.092 138.124C504.001 138.027 503.911 137.934 503.82 137.837C496.466 130.125 485.443 123.405 480.336 120.887C478.033 119.751 473.722 117.99 470.003 117.91C467.349 117.854 464.997 118.65 463.727 120.939C462.423 123.289 463.418 125.603 465.386 127.595C468.073 130.309 472.557 132.425 474.228 133.199C478.932 135.383 492.508 139.192 503.576 139.345C505.694 141.647 507.458 144.03 508.595 146.411C509.798 148.923 510.3 151.428 509.734 153.815C508.333 159.703 502.326 161.772 495.142 161.924C492.954 161.97 490.657 161.835 488.337 161.561C487.809 159.208 486.527 156.766 484.75 154.394C480.56 148.808 473.647 143.584 467.921 140.834C465.945 139.884 462.442 138.434 459.437 138.442C457.265 138.446 455.35 139.2 454.306 141.266C453.036 143.775 453.788 146.242 455.456 148.44C457.779 151.497 461.898 154.03 464.061 155.389C468.309 158.056 477.927 161.427 487.341 162.669C487.474 163.647 487.447 164.6 487.233 165.522C486.431 168.991 482.992 171.861 475.693 173.606C472.158 174.449 468.547 174.909 464.926 174.654C459.706 174.288 454.872 172.855 449.993 171.003C449.685 170.888 449.343 171.049 449.23 171.368C449.116 171.685 449.273 172.04 449.581 172.155C454.566 174.048 459.51 175.504 464.844 175.878C468.582 176.14 472.31 175.67 475.958 174.801C483.903 172.903 487.515 169.58 488.389 165.805C488.611 164.84 488.656 163.84 488.546 162.817C490.803 163.073 493.033 163.196 495.163 163.149C502.968 162.985 509.366 160.5 510.887 154.105C512.009 149.381 509.428 144.197 505.19 139.339C506.391 139.312 507.555 139.24 508.666 139.111C513.835 138.51 517.843 136.665 519.315 133.059C520.295 130.657 520.059 127.9 518.945 124.98C520.927 125.369 522.901 125.695 524.845 125.937C535.27 127.245 544.791 126.186 549.942 120.642C552.029 118.397 552.96 115.553 553.164 112.53C553.456 108.125 552.182 103.341 550.768 99.5952C550.475 98.8167 550.169 98.0527 549.849 97.3067C551.442 97.4903 553.037 97.641 554.633 97.7522C558.578 98.0302 563.332 98.1969 567.611 97.1881C570.535 96.4972 573.238 95.2607 575.342 93.1657C578.358 90.1685 578.96 86.4443 578.317 82.6962C577.698 79.0693 575.898 75.4202 574.071 72.4379C566.074 59.3838 553.513 49.6045 538.398 47.5038C538.075 47.4589 537.776 47.6947 537.731 48.0305C537.686 48.3642 537.913 48.6748 538.239 48.7188C553 50.7705 565.256 60.3455 573.067 73.0958C574.818 75.9504 576.553 79.4395 577.149 82.9133C577.722 86.2625 577.217 89.6023 574.521 92.2825C572.074 94.7152 568.747 95.874 565.254 96.3875C561.677 96.9135 557.924 96.756 554.715 96.5281C552.899 96.3992 551.082 96.224 549.272 96.0019ZM487.086 161.402C486.541 159.346 485.367 157.223 483.81 155.148C479.731 149.707 472.996 144.626 467.419 141.946C465.557 141.053 462.266 139.659 459.439 139.668C457.724 139.672 456.181 140.202 455.357 141.832C454.32 143.885 455.027 145.883 456.393 147.683C458.625 150.62 462.601 153.034 464.681 154.341C468.781 156.914 477.993 160.148 487.086 161.402ZM502.385 138.09C495.147 130.745 484.722 124.41 479.822 121.993C477.628 120.91 473.521 119.212 469.973 119.137C467.784 119.089 465.804 119.655 464.757 121.546C463.734 123.389 464.675 125.155 466.218 126.715C468.797 129.323 473.114 131.337 474.717 132.081C479.173 134.149 491.743 137.71 502.385 138.09ZM516.894 123.299C516.341 122.232 515.676 121.147 514.93 120.053C507.411 109.047 491.187 97.3724 485.884 94.5648C483.574 93.3417 479.366 91.0107 475.609 90.5528C473.294 90.2682 471.15 90.7063 469.859 92.7639C469.12 93.9426 469.087 95.2554 469.511 96.6168C469.969 98.0946 470.952 99.6186 472.202 101.111C476.074 105.737 482.519 110.01 484.916 111.41C491.231 115.102 504.045 120.464 516.894 123.299ZM547.866 95.822C540.957 81.3235 528.975 73.1876 514.761 65.6759C512.344 64.4001 506.335 61.4926 501.097 60.649C499.405 60.3781 497.797 60.3189 496.427 60.6227C495.156 60.9061 494.098 61.5003 493.416 62.5626C492.634 63.7783 492.578 65.1512 492.989 66.5866C493.434 68.1362 494.408 69.7487 495.655 71.3304C499.51 76.2212 505.964 80.7773 508.267 82.144C520.365 89.3195 534.019 93.9379 547.866 95.822Z" fill="white"/>
</g>
</g>
<g opacity="0.03" clip-path="url(#clip0_1_72)">
<mask id="mask1_1_72" style="mask-type:luminance" maskUnits="userSpaceOnUse" x="828" y="299" width="116" height="116">
<path d="M944 299H828V415H944V299Z" fill="white"/>
</mask>
<g mask="url(#mask1_1_72)">
<path d="M901.795 362.979C912.596 367.068 927.135 366.322 936.392 361.205L944 357L936.392 352.795C927.135 347.678 912.597 346.933 901.795 351.021L893.695 354.087C893.644 353.924 893.583 353.767 893.524 353.608L901.397 350.059C911.926 345.312 921.679 334.505 924.607 324.341L927.012 315.988L918.659 318.393C908.495 321.321 897.688 331.074 892.941 341.603L889.513 349.207C889.355 349.13 889.196 349.054 889.033 348.987L891.979 341.205C896.067 330.403 895.322 315.864 890.205 306.607L886 299L881.795 306.608C876.678 315.865 875.933 330.403 880.021 341.205L882.967 348.988C882.803 349.054 882.645 349.131 882.487 349.207L879.059 341.603C874.312 331.074 863.505 321.321 853.341 318.394L844.988 315.988L847.393 324.341C850.321 334.505 860.074 345.312 870.603 350.059L878.476 353.608C878.416 353.767 878.355 353.924 878.305 354.088L870.205 351.021C859.403 346.933 844.864 347.678 835.607 352.795L828 357L835.608 361.205C844.865 366.322 859.403 367.068 870.205 362.979L878.684 359.77C878.751 359.916 878.818 360.062 878.893 360.204L870.603 363.941C860.074 368.688 850.321 379.495 847.394 389.659L844.988 398.012L853.341 395.607C863.505 392.679 874.312 382.926 879.059 372.397L882.906 363.864C883.048 363.923 883.196 363.972 883.342 364.023L880.021 372.796C875.933 383.597 876.678 398.136 881.795 407.393L886 415.001L890.206 407.393C895.322 398.136 896.068 383.598 891.979 372.796L888.658 364.023C888.804 363.972 888.952 363.923 889.094 363.863L892.941 372.397C897.688 382.926 908.495 392.679 918.659 395.607L927.012 398.012L924.607 389.659C921.679 379.495 911.926 368.688 901.397 363.941L893.107 360.204C893.182 360.062 893.249 359.916 893.316 359.769L901.795 362.979Z" fill="white"/>
</g>
</g>
<defs>
<linearGradient id="paint0_linear_1_72" x1="645" y1="0" x2="645" y2="446" gradientUnits="userSpaceOnUse">
<stop stop-color="#5CE1E6"/>
<stop offset="1" stop-color="#35A0A4"/>
</linearGradient>
<linearGradient id="paint1_linear_1_72" x1="0" y1="0" x2="830.53" y2="1217.71" gradientUnits="userSpaceOnUse">
<stop stop-color="#FF8A00"/>
<stop offset="1" stop-color="#E8112B"/>
</linearGradient>
<linearGradient id="paint2_linear_1_72" x1="80.7252" y1="159.046" x2="80.7252" y2="204.747" gradientUnits="userSpaceOnUse">
<stop stop-color="white"/>
<stop offset="1" stop-color="white" stop-opacity="0"/>
</linearGradient>
<linearGradient id="paint3_linear_1_72" x1="91.7209" y1="145.409" x2="91.7209" y2="241.076" gradientUnits="userSpaceOnUse">
<stop stop-color="white"/>
<stop offset="1" stop-color="white" stop-opacity="0"/>
</linearGradient>
<linearGradient id="paint4_linear_1_72" x1="102.688" y1="143" x2="102.688" y2="266.175" gradientUnits="userSpaceOnUse">
<stop stop-color="white"/>
<stop offset="1" stop-color="white" stop-opacity="0"/>
</linearGradient>
<linearGradient id="paint5_linear_1_72" x1="113.332" y1="144.045" x2="113.332" y2="286.951" gradientUnits="userSpaceOnUse">
<stop stop-color="white"/>
<stop offset="1" stop-color="white" stop-opacity="0"/>
</linearGradient>
<linearGradient id="paint6_linear_1_72" x1="124.004" y1="148.077" x2="124.004" y2="304.998" gradientUnits="userSpaceOnUse">
<stop stop-color="white"/>
<stop offset="1" stop-color="white" stop-opacity="0"/>
</linearGradient>
<linearGradient id="paint7_linear_1_72" x1="134.747" y1="154.316" x2="134.747" y2="320.929" gradientUnits="userSpaceOnUse">
<stop stop-color="white"/>
<stop offset="1" stop-color="white" stop-opacity="0"/>
</linearGradient>
<linearGradient id="paint8_linear_1_72" x1="145.517" y1="162.354" x2="145.517" y2="335.118" gradientUnits="userSpaceOnUse">
<stop stop-color="white"/>
<stop offset="1" stop-color="white" stop-opacity="0"/>
</linearGradient>
<linearGradient id="paint9_linear_1_72" x1="156.302" y1="172.045" x2="156.302" y2="347.739" gradientUnits="userSpaceOnUse">
<stop stop-color="white"/>
<stop offset="1" stop-color="white" stop-opacity="0"/>
</linearGradient>
<linearGradient id="paint10_linear_1_72" x1="167.115" y1="183.188" x2="167.115" y2="358.882" gradientUnits="userSpaceOnUse">
<stop stop-color="white"/>
<stop offset="1" stop-color="white" stop-opacity="0"/>
</linearGradient>
<linearGradient id="paint11_linear_1_72" x1="177.928" y1="195.839" x2="177.928" y2="368.516" gradientUnits="userSpaceOnUse">
<stop stop-color="white"/>
<stop offset="1" stop-color="white" stop-opacity="0"/>
</linearGradient>
<linearGradient id="paint12_linear_1_72" x1="188.698" y1="210.057" x2="188.698" y2="376.553" gradientUnits="userSpaceOnUse">
<stop stop-color="white"/>
<stop offset="1" stop-color="white" stop-opacity="0"/>
</linearGradient>
<linearGradient id="paint13_linear_1_72" x1="199.469" y1="226.045" x2="199.469" y2="382.763" gradientUnits="userSpaceOnUse">
<stop stop-color="white"/>
<stop offset="1" stop-color="white" stop-opacity="0"/>
</linearGradient>
<linearGradient id="paint14_linear_1_72" x1="210.127" y1="244.064" x2="210.127" y2="386.738" gradientUnits="userSpaceOnUse">
<stop stop-color="white"/>
<stop offset="1" stop-color="white" stop-opacity="0"/>
</linearGradient>
<linearGradient id="paint15_linear_1_72" x1="220.757" y1="264.927" x2="220.757" y2="387.811" gradientUnits="userSpaceOnUse">
<stop stop-color="white"/>
<stop offset="1" stop-color="white" stop-opacity="0"/>
</linearGradient>
<linearGradient id="paint16_linear_1_72" x1="231.71" y1="290.113" x2="231.71" y2="385.316" gradientUnits="userSpaceOnUse">
<stop stop-color="white"/>
<stop offset="1" stop-color="white" stop-opacity="0"/>
</linearGradient>
<linearGradient id="paint17_linear_1_72" x1="242.72" y1="326.789" x2="242.72" y2="371.3" gradientUnits="userSpaceOnUse">
<stop stop-color="white"/>
<stop offset="1" stop-color="white" stop-opacity="0"/>
</linearGradient>
<linearGradient id="paint18_linear_1_72" x1="885.938" y1="235.458" x2="885.938" y2="268.091" gradientUnits="userSpaceOnUse">
<stop stop-color="white" stop-opacity="0"/>
<stop offset="1" stop-color="white"/>
</linearGradient>
<linearGradient id="paint19_linear_1_72" x1="893.79" y1="225.721" x2="893.79" y2="294.033" gradientUnits="userSpaceOnUse">
<stop stop-color="white" stop-opacity="0"/>
<stop offset="1" stop-color="white"/>
</linearGradient>
<linearGradient id="paint20_linear_1_72" x1="901.621" y1="224" x2="901.621" y2="311.955" gradientUnits="userSpaceOnUse">
<stop stop-color="white" stop-opacity="0"/>
<stop offset="1" stop-color="white"/>
</linearGradient>
<linearGradient id="paint21_linear_1_72" x1="909.222" y1="224.746" x2="909.222" y2="326.79" gradientUnits="userSpaceOnUse">
<stop stop-color="white" stop-opacity="0"/>
<stop offset="1" stop-color="white"/>
</linearGradient>
<linearGradient id="paint22_linear_1_72" x1="916.842" y1="227.625" x2="916.842" y2="339.677" gradientUnits="userSpaceOnUse">
<stop stop-color="white" stop-opacity="0"/>
<stop offset="1" stop-color="white"/>
</linearGradient>
<linearGradient id="paint23_linear_1_72" x1="924.513" y1="232.081" x2="924.513" y2="351.053" gradientUnits="userSpaceOnUse">
<stop stop-color="white" stop-opacity="0"/>
<stop offset="1" stop-color="white"/>
</linearGradient>
<linearGradient id="paint24_linear_1_72" x1="932.204" y1="237.819" x2="932.204" y2="361.184" gradientUnits="userSpaceOnUse">
<stop stop-color="white" stop-opacity="0"/>
<stop offset="1" stop-color="white"/>
</linearGradient>
<linearGradient id="paint25_linear_1_72" x1="939.905" y1="244.74" x2="939.905" y2="370.198" gradientUnits="userSpaceOnUse">
<stop stop-color="white" stop-opacity="0"/>
<stop offset="1" stop-color="white"/>
</linearGradient>
<linearGradient id="paint26_linear_1_72" x1="947.626" y1="252.696" x2="947.626" y2="378.154" gradientUnits="userSpaceOnUse">
<stop stop-color="white" stop-opacity="0"/>
<stop offset="1" stop-color="white"/>
</linearGradient>
<linearGradient id="paint27_linear_1_72" x1="955.347" y1="261.73" x2="955.347" y2="385.033" gradientUnits="userSpaceOnUse">
<stop stop-color="white" stop-opacity="0"/>
<stop offset="1" stop-color="white"/>
</linearGradient>
<linearGradient id="paint28_linear_1_72" x1="963.038" y1="271.883" x2="963.038" y2="390.772" gradientUnits="userSpaceOnUse">
<stop stop-color="white" stop-opacity="0"/>
<stop offset="1" stop-color="white"/>
</linearGradient>
<linearGradient id="paint29_linear_1_72" x1="970.729" y1="283.3" x2="970.729" y2="395.207" gradientUnits="userSpaceOnUse">
<stop stop-color="white" stop-opacity="0"/>
<stop offset="1" stop-color="white"/>
</linearGradient>
<linearGradient id="paint30_linear_1_72" x1="978.339" y1="296.167" x2="978.339" y2="398.046" gradientUnits="userSpaceOnUse">
<stop stop-color="white" stop-opacity="0"/>
<stop offset="1" stop-color="white"/>
</linearGradient>
<linearGradient id="paint31_linear_1_72" x1="985.931" y1="311.063" x2="985.931" y2="398.811" gradientUnits="userSpaceOnUse">
<stop stop-color="white" stop-opacity="0"/>
<stop offset="1" stop-color="white"/>
</linearGradient>
<linearGradient id="paint32_linear_1_72" x1="993.752" y1="329.049" x2="993.752" y2="397.03" gradientUnits="userSpaceOnUse">
<stop stop-color="white" stop-opacity="0"/>
<stop offset="1" stop-color="white"/>
</linearGradient>
<linearGradient id="paint33_linear_1_72" x1="1001.61" y1="355.237" x2="1001.61" y2="387.021" gradientUnits="userSpaceOnUse">
<stop stop-color="white" stop-opacity="0"/>
<stop offset="1" stop-color="white"/>
</linearGradient>
<clipPath id="clip0_1_72">
<rect width="116" height="116" fill="white" transform="translate(828 299)"/>
</clipPath>
</defs>
</svg>
