<svg width="157" height="185" viewBox="0 0 157 185" fill="none" xmlns="http://www.w3.org/2000/svg">
<g opacity="0.2">
<path fill-rule="evenodd" clip-rule="evenodd" d="M118.836 71.4756C111.864 56.2763 99.5563 47.8216 84.8676 40.0579C82.3871 38.7475 76.2206 35.7743 70.8458 34.9115C67.0453 34.3003 63.6422 34.7906 61.9911 37.3595C60.5464 39.6034 60.9955 42.2921 62.5445 45.0125C65.9076 50.9199 74.4742 57.0411 77.2383 58.682C89.6911 66.0693 103.773 70.7752 118.036 72.612C118.452 73.5519 118.85 74.5204 119.227 75.5162C120.359 78.5179 121.41 82.2117 121.563 85.8102C121.713 89.3075 121.017 92.7204 118.649 95.2677C113.71 100.584 104.553 101.448 94.5538 100.193C92.3744 99.9208 90.1576 99.5443 87.9307 99.0881C87.2799 97.6854 86.4467 96.2562 85.4631 94.8169C77.8329 83.6484 61.374 71.7966 55.9905 68.9468C53.5938 67.6777 49.2141 65.2813 45.3151 64.8071C42.5271 64.4674 39.9816 65.0944 38.4285 67.5714C37.0436 69.7772 37.5276 72.3592 39.1001 74.9546C42.496 80.5584 51.0187 86.2735 53.8933 87.9519C60.4277 91.7709 73.837 97.3605 87.1272 100.172C88.3663 103.025 88.7396 105.717 87.7839 108.056C86.4559 111.311 82.7635 112.822 78.101 113.365C76.6947 113.528 75.2011 113.602 73.6559 113.597C73.5648 113.501 73.4746 113.407 73.3835 113.31C66.0302 105.599 55.0067 98.8786 49.9003 96.3611C47.5968 95.2241 43.2857 93.464 39.5665 93.3833C36.9127 93.3276 34.5605 94.1236 33.2908 96.4122C31.9867 98.7625 32.9823 101.077 34.9501 103.068C37.6366 105.783 42.1211 107.899 43.792 108.673C48.4959 110.857 62.0716 114.666 73.1399 114.818C75.2574 117.12 77.0222 119.504 78.1585 121.885C79.3615 124.396 79.8639 126.901 79.2979 129.289C77.8967 135.176 71.8896 137.245 64.7059 137.397C62.5183 137.444 60.2213 137.308 57.9006 137.035C57.3732 134.682 56.0906 132.239 54.3134 129.868C50.124 124.282 43.2112 119.058 37.4847 116.307C35.5093 115.357 32.0054 113.908 29.001 113.916C26.8287 113.92 24.914 114.673 23.8703 116.739C22.6003 119.249 23.3518 121.715 25.0201 123.914C27.3428 126.97 31.4623 129.504 33.625 130.863C37.8727 133.53 47.4907 136.9 56.9052 138.143C57.0376 139.12 57.0108 140.074 56.7966 140.995C55.9952 144.465 52.5563 147.335 45.2569 149.079C41.7222 149.922 38.1113 150.382 34.4897 150.127C29.2694 149.762 24.4359 148.328 19.5569 146.477C19.2489 146.361 18.9064 146.523 18.794 146.841C18.6794 147.159 18.837 147.514 19.145 147.629C24.1301 149.521 29.0739 150.978 34.4075 151.351C38.1457 151.614 41.8742 151.144 45.5221 150.275C53.4667 148.376 57.0793 145.054 57.9531 141.279C58.1752 140.314 58.2196 139.314 58.1101 138.291C60.367 138.546 62.5967 138.67 64.7268 138.623C72.5314 138.458 78.9301 135.973 80.4507 129.579C81.5733 124.855 78.9918 119.671 74.7539 114.813C75.9553 114.786 77.119 114.714 78.2297 114.584C83.3988 113.983 87.4067 112.138 88.8789 108.533C89.8585 106.131 89.6231 103.374 88.5093 100.453C90.4912 100.843 92.4653 101.169 94.4092 101.411C104.833 102.719 114.355 101.66 119.506 96.1156C121.592 93.8711 122.524 91.0265 122.727 88.0037C123.02 83.5989 121.746 78.8143 120.332 75.0688C120.039 74.2903 119.732 73.5264 119.413 72.7803C121.006 72.9639 122.601 73.1146 124.196 73.2258C128.142 73.5039 132.896 73.6705 137.175 72.6617C140.099 71.9708 142.802 70.7344 144.905 68.6393C147.922 65.6422 148.524 61.9179 147.881 58.1698C147.261 54.5429 145.462 50.8938 143.635 47.9115C135.638 34.8574 123.077 25.0781 107.962 22.9774C107.639 22.9325 107.34 23.1683 107.295 23.5042C107.25 23.8379 107.477 24.1484 107.803 24.1924C122.564 26.2441 134.82 35.8191 142.631 48.5695C144.382 51.4241 146.117 54.9131 146.713 58.3869C147.286 61.7361 146.781 65.076 144.084 67.7561C141.638 70.1888 138.31 71.3477 134.818 71.8611C131.241 72.3871 127.488 72.2296 124.279 72.0017C122.463 71.8728 120.646 71.6976 118.836 71.4756ZM56.6495 136.876C56.1046 134.819 54.9306 132.697 53.3741 130.621C49.2952 125.18 42.5602 120.099 36.9826 117.42C35.1209 116.527 31.8295 115.133 29.0027 115.141C27.2878 115.146 25.7448 115.676 24.9206 117.305C23.8841 119.359 24.591 121.356 25.9564 123.156C28.1894 126.094 32.1649 128.508 34.2445 129.815C38.3446 132.388 47.557 135.622 56.6495 136.876ZM71.9485 113.564C64.7106 106.219 54.2855 99.8835 49.3859 97.4665C47.1919 96.3835 43.0846 94.6852 39.5373 94.6105C37.3479 94.5622 35.3677 95.129 34.3206 97.02C33.2976 98.863 34.2385 100.629 35.7819 102.189C38.3609 104.797 42.6782 106.81 44.2806 107.555C48.7372 109.623 61.3064 113.184 71.9485 113.564ZM86.4581 98.7722C85.9045 97.7052 85.2402 96.6205 84.4935 95.5265C76.9749 84.5209 60.7512 72.846 55.4482 70.0385C53.1381 68.8154 48.93 66.4843 45.1726 66.0264C42.8578 65.7418 40.714 66.18 39.423 68.2376C38.684 69.4162 38.6508 70.729 39.0753 72.0904C39.5333 73.5682 40.5162 75.0922 41.7658 76.5851C45.6378 81.2109 52.0824 85.4839 54.48 86.8838C60.7953 90.5751 73.6087 95.9373 86.4581 98.7722ZM117.43 71.2956C110.52 56.7972 98.5386 48.6613 84.3252 41.1496C81.9076 39.8738 75.8989 36.9662 70.6613 36.1227C68.969 35.8517 67.361 35.7925 65.991 36.0963C64.7201 36.3797 63.6616 36.974 62.9795 38.0363C62.1979 39.2519 62.1421 40.6249 62.5526 42.0602C62.9979 43.6098 63.9723 45.2223 65.2188 46.8041C69.0739 51.6949 75.5274 56.2509 77.8312 57.6176C89.9285 64.7931 103.583 69.4116 117.43 71.2956Z" fill="white"/>
</g>
</svg>
