<svg width="291" height="292" viewBox="0 0 291 292" fill="none" xmlns="http://www.w3.org/2000/svg">
<path d="M260.01 145.606C260.01 208.455 209.121 260.01 145.606 260.01C82.6469 260.01 31.2013 209.079 31.2013 145.606C31.2013 95.9281 62.7822 53.9885 106.448 38.0654C118.669 33.6453 131.825 31.2012 145.606 31.2012C159.386 31.2012 172.543 33.6453 184.763 38.0654C229.418 54.3213 260.01 96.9318 260.01 145.606Z" fill="#097275"/>
<path d="M249.61 145.606C249.61 161.155 246.178 175.923 240.041 189.184C223.557 224.857 187.467 249.61 145.606 249.61C103.64 249.61 67.4469 224.753 51.0663 188.924C44.9821 175.767 41.6019 161.051 41.6019 145.606C41.6019 133.75 43.578 122.361 47.2701 111.753C56.9945 83.4636 78.5233 60.6868 106.084 49.4023C118.253 44.3582 131.617 41.6021 145.606 41.6021C159.594 41.6021 172.959 44.3582 185.127 49.4023C212.636 60.6868 234.165 83.3596 243.89 111.597C247.582 122.257 249.61 133.698 249.61 145.606Z" fill="#04ECF4"/>
<path d="M187.207 130.004H182.007V116.437C182.007 112.885 178.533 110.378 175.164 111.502L150.806 119.619H109.204C106.334 119.619 104.004 121.949 104.004 124.819V124.804H98.8041C95.944 124.804 93.6039 127.144 93.6039 130.004V150.805C93.6039 153.717 95.944 156.005 98.8041 156.005H104.004V156.02C104.004 158.891 106.334 161.221 109.204 161.221H114.405V187.206C114.405 190.118 116.745 192.406 119.605 192.406H130.005C132.865 192.406 135.205 190.118 135.205 187.206V161.221H150.806L175.164 169.343C178.533 170.467 182.007 167.96 182.007 164.408V150.805H187.207C192.927 150.805 197.608 146.176 197.608 140.404C197.608 134.684 192.927 130.004 187.207 130.004Z" fill="#1ABBC0"/>
<path d="M150.8 154.888H109.25C106.383 154.888 104.056 152.561 104.056 149.694V118.532C104.056 115.665 106.383 113.338 109.25 113.338H150.8V154.888Z" fill="#26A6AA"/>
<path d="M135.218 154.873V180.841C135.218 183.75 132.881 186.035 130.025 186.035H119.637C116.781 186.035 114.444 183.75 114.444 180.841V154.873H135.218Z" fill="#097275"/>
<path d="M104.056 118.517V149.679H98.8625C96.006 149.679 93.6688 147.394 93.6688 144.485V123.71C93.6688 120.854 96.006 118.517 98.8625 118.517H104.056Z" fill="#097275"/>
<path d="M135.218 154.873V160.066H114.444V154.873H135.218Z" fill="#00585B"/>
<path d="M150.799 154.888L175.127 162.995C178.492 164.117 181.962 161.619 181.962 158.072V110.155C181.962 106.607 178.492 104.109 175.127 105.231L150.799 113.339V154.888Z" fill="#097275"/>
<path d="M197.543 134.098C197.543 139.863 192.868 144.485 187.155 144.485H181.962V123.71H187.155C192.868 123.71 197.543 128.385 197.543 134.098Z" fill="#26A6AA"/>
<path d="M187.155 123.71V144.485H181.962V123.71H187.155Z" fill="#2A7073"/>
<g opacity="0.2">
<path d="M185.387 45.1896C185.387 67.0876 167.649 84.9711 145.606 84.9711C123.671 84.9711 105.824 67.15 105.824 45.1896C105.824 23.1512 123.921 5.4082 145.606 5.4082C167.571 5.4082 185.387 23.224 185.387 45.1896Z" fill="black"/>
</g>
<g opacity="0.2">
<path d="M290.301 151.013C290.301 172.911 272.564 190.795 250.52 190.795C228.586 190.795 210.739 172.974 210.739 151.013C210.739 128.975 228.835 111.232 250.52 111.232C272.486 111.232 290.301 129.048 290.301 151.013Z" fill="black"/>
</g>
<g opacity="0.2">
<path d="M79.5628 151.013C79.5628 172.911 61.825 190.795 39.7814 190.795C17.847 190.795 0 172.974 0 151.013C0 128.975 18.0966 111.232 39.7814 111.232C61.747 111.232 79.5628 129.048 79.5628 151.013Z" fill="black"/>
</g>
<path d="M185.387 39.7814C185.387 61.6794 167.649 79.5629 145.606 79.5629C123.671 79.5629 105.824 61.7418 105.824 39.7814C105.824 17.743 123.921 0 145.606 0C167.571 0 185.387 17.8158 185.387 39.7814Z" fill="#5CE1E6"/>
<path d="M176.807 39.7817C176.807 48.3412 173.38 56.0739 167.748 61.7629C162.116 67.4519 154.275 70.9828 145.606 70.9828C136.937 70.9828 129.204 67.4519 123.573 61.8721C117.884 56.1831 114.405 48.3412 114.405 39.7817C114.405 22.4963 128.596 8.58057 145.606 8.58057C162.834 8.58057 176.807 22.5535 176.807 39.7817Z" fill="#EFEFEF"/>
<path d="M290.301 145.605C290.301 167.503 272.564 185.387 250.52 185.387C228.586 185.387 210.739 167.566 210.739 145.605C210.739 123.567 228.835 105.824 250.52 105.824C272.486 105.824 290.301 123.64 290.301 145.605Z" fill="#5CE1E6"/>
<path d="M281.721 145.605C281.721 154.165 278.294 161.898 272.662 167.587C267.031 173.276 259.189 176.807 250.52 176.807C241.851 176.807 234.119 173.276 228.487 167.696C222.798 162.007 219.319 154.165 219.319 145.605C219.319 128.32 233.51 114.404 250.52 114.404C267.748 114.404 281.721 128.377 281.721 145.605Z" fill="#EFEFEF"/>
<path d="M79.5628 145.605C79.5628 167.503 61.825 185.387 39.7814 185.387C17.847 185.387 0 167.566 0 145.605C0 123.567 18.0966 105.824 39.7814 105.824C61.747 105.824 79.5628 123.64 79.5628 145.605Z" fill="#5CE1E6"/>
<path d="M70.9825 145.605C70.9825 154.165 67.5556 161.898 61.9238 167.587C56.292 173.276 48.4501 176.807 39.7814 176.807C31.1127 176.807 23.38 173.276 17.7482 167.696C12.0592 162.007 8.58032 154.165 8.58032 145.605C8.58032 128.32 22.7716 114.404 39.7814 114.404C57.0096 114.404 70.9825 128.377 70.9825 145.605Z" fill="#EFEFEF"/>
<path d="M185.387 251.43C185.387 273.328 167.649 291.212 145.606 291.212C123.671 291.212 105.824 273.391 105.824 251.43C105.824 229.392 123.921 211.649 145.606 211.649C167.571 211.649 185.387 229.465 185.387 251.43Z" fill="#5CE1E6"/>
<path d="M176.807 251.43C176.807 259.99 173.38 267.722 167.748 273.411C162.116 279.1 154.275 282.631 145.606 282.631C136.937 282.631 129.205 279.1 123.573 273.52C117.884 267.831 114.405 259.99 114.405 251.43C114.405 234.145 128.596 220.229 145.606 220.229C162.834 220.229 176.807 234.202 176.807 251.43Z" fill="#EFEFEF"/>
<path d="M167.753 50.8269V61.7629C162.122 67.4519 154.275 70.9829 145.606 70.9829C136.937 70.9829 129.204 67.4519 123.573 61.8721V50.8269C123.573 44.7531 128.544 39.7817 134.618 39.7817H156.708C162.782 39.7817 167.753 44.7531 167.753 50.8269Z" fill="#26A6AA"/>
<path d="M145.663 39.7815C139.563 39.7815 134.618 34.8361 134.618 28.7363V23.2137C134.618 17.1138 139.563 12.1685 145.663 12.1685C151.763 12.1685 156.708 17.1138 156.708 23.2137V28.7363C156.708 34.8361 151.763 39.7815 145.663 39.7815Z" fill="#9DEDEF"/>
<path d="M272.668 156.651V167.587C267.036 173.276 259.189 176.807 250.52 176.807C241.851 176.807 234.119 173.276 228.487 167.696V156.651C228.487 150.577 233.458 145.606 239.532 145.606H261.622C267.696 145.606 272.668 150.577 272.668 156.651Z" fill="#26A6AA"/>
<path d="M250.577 145.606C244.477 145.602 239.535 140.653 239.539 134.554L239.543 129.031C239.547 122.931 244.495 117.989 250.595 117.993C256.695 117.997 261.637 122.945 261.633 129.045L261.63 134.568C261.626 140.668 256.677 145.61 250.577 145.606Z" fill="#9DEDEF"/>
<path d="M61.9291 156.651V167.587C56.2973 173.276 48.4502 176.807 39.7815 176.807C31.1128 176.807 23.3801 173.276 17.7483 167.696V156.651C17.7483 150.577 22.7197 145.606 28.7935 145.606H50.8839C56.9577 145.606 61.9291 150.577 61.9291 156.651Z" fill="#26A6AA"/>
<path d="M39.847 145.606C33.748 145.708 28.7205 140.846 28.6182 134.747L28.5257 129.225C28.4235 123.126 33.2853 118.099 39.3842 117.997C45.4832 117.894 50.5107 122.756 50.613 128.855L50.7055 134.377C50.8078 140.476 45.946 145.503 39.847 145.606Z" fill="#9DEDEF"/>
<path d="M167.753 262.475V273.411C162.122 279.1 154.275 282.631 145.606 282.631C136.937 282.631 129.204 279.1 123.573 273.521V262.475C123.573 256.402 128.544 251.43 134.618 251.43H156.708C162.782 251.43 167.753 256.402 167.753 262.475Z" fill="#26A6AA"/>
<path d="M145.657 251.43C139.574 250.981 135.006 245.685 135.455 239.602L135.861 234.094C136.31 228.011 141.606 223.443 147.69 223.892C153.773 224.341 158.341 229.637 157.892 235.72L157.485 241.228C157.036 247.311 151.741 251.879 145.657 251.43Z" fill="#9DEDEF"/>
</svg>
