<svg width="274" height="234" viewBox="0 0 274 234" fill="none" xmlns="http://www.w3.org/2000/svg">
<path d="M7.55828 87.6722C5.61739 87.6722 3.69516 86.8865 2.22083 85.295C0.783822 83.7438 0 81.7092 0 79.5335C0 77.3578 0.783822 75.303 2.22083 73.772C5.16949 70.589 9.96573 70.589 12.9144 73.772C14.3514 75.3232 15.1352 77.3578 15.1352 79.5335C15.1352 81.7092 14.3514 83.764 12.9144 85.295C11.4214 86.8865 9.49918 87.6722 7.55828 87.6722ZM7.55828 75.1217C6.51319 75.1217 5.46809 75.5447 4.68427 76.411C3.91911 77.2369 3.48987 78.3449 3.48987 79.5134C3.48987 80.6818 3.91911 81.7898 4.68427 82.6157C6.27058 84.328 8.86465 84.328 10.451 82.6157C11.2161 81.7898 11.6454 80.6818 11.6454 79.5134C11.6454 78.3449 11.2161 77.2369 10.451 76.411C9.64847 75.5447 8.60338 75.1217 7.55828 75.1217ZM28.8894 110.698C26.9485 110.698 25.0263 109.912 23.552 108.321C20.6033 105.138 20.6033 99.9607 23.552 96.7778C26.5006 93.5948 31.2969 93.5948 34.2456 96.7778C37.1942 99.9607 37.1942 105.138 34.2456 108.321C32.7712 109.912 30.8303 110.698 28.8894 110.698ZM28.8894 98.1477C27.8443 98.1477 26.7992 98.5707 26.0154 99.4369C24.4291 101.149 24.4291 103.949 26.0154 105.662C27.6017 107.374 30.1958 107.374 31.7821 105.662C33.3684 103.949 33.3684 101.149 31.7821 99.4369C30.9796 98.5908 29.9345 98.1477 28.8894 98.1477Z" fill="#00F6FF"/>
<path d="M32.9915 73.7518L2.20908 106.961L4.6761 109.626L35.4585 76.4164L32.9915 73.7518Z" fill="#00F6FF"/>
<path d="M186.867 24.6374C192.041 24.6374 196.235 20.1097 196.235 14.5245C196.235 8.93931 192.041 4.41162 186.867 4.41162C181.693 4.41162 177.498 8.93931 177.498 14.5245C177.498 20.1097 181.693 24.6374 186.867 24.6374Z" fill="#00F6FF"/>
<path d="M228.223 118.776C228.223 118.776 218.033 104.574 211.203 106.87C204.372 109.167 209.075 119.945 227.122 119.219M229.865 118.776C229.865 118.776 240.055 104.574 246.885 106.87C253.716 109.167 249.013 119.945 230.966 119.219" stroke="#00DAE2" stroke-width="1.924" stroke-miterlimit="10"/>
<path d="M220.31 104.09L228.577 118.655" stroke="#00DAE2" stroke-width="1.924" stroke-miterlimit="10"/>
<path d="M237.778 104.09L229.51 118.655" stroke="#00DAE2" stroke-width="1.924" stroke-miterlimit="10"/>
<path d="M256.59 117.446H201.498V207.314H256.59V117.446Z" fill="#00D9E1"/>
<path d="M259.781 117.446H198.288V133.442H259.781V117.446Z" fill="#00D9E1"/>
<path d="M233.598 117.446H224.509V207.314H233.598V117.446Z" fill="white"/>
<path opacity="0.2" d="M201.498 133.442H256.59V147.362L201.498 137.491V133.442Z" fill="black"/>
<path d="M200.528 224.014C202.226 224.014 203.626 225.525 203.626 227.358C203.626 229.192 202.226 230.702 200.528 230.702C198.829 230.702 197.43 229.192 197.43 227.358C197.411 225.525 198.811 224.014 200.528 224.014ZM200.528 221.254C197.411 221.254 194.873 223.994 194.873 227.358C194.873 230.723 197.411 233.462 200.528 233.462C203.644 233.462 206.182 230.723 206.182 227.358C206.164 223.994 203.644 221.254 200.528 221.254Z" fill="#999999"/>
<path d="M206.668 218.556L201.815 228.104C201.125 229.474 199.203 228.93 199.203 227.379V218.556H206.668Z" fill="#2E4344"/>
<path d="M251.719 224.014C253.417 224.014 254.817 225.525 254.817 227.358C254.817 229.192 253.417 230.702 251.719 230.702C250.021 230.702 248.621 229.192 248.621 227.358C248.621 225.525 250.002 224.014 251.719 224.014ZM251.719 221.254C248.602 221.254 246.064 223.994 246.064 227.358C246.064 230.723 248.602 233.462 251.719 233.462C254.835 233.462 257.374 230.723 257.374 227.358C257.374 223.994 254.835 221.254 251.719 221.254Z" fill="#999999"/>
<path d="M257.859 218.556L253.007 228.105C252.316 229.474 250.394 228.931 250.394 227.379V218.556H257.859ZM259.986 209.349H197.411C196.814 209.349 196.291 208.906 196.161 208.282L183.377 146.416C183.284 146.013 183.377 145.59 183.62 145.247C183.862 144.925 184.235 144.724 184.609 144.724H272.733C273.125 144.724 273.498 144.925 273.722 145.247C273.964 145.57 274.058 145.993 273.964 146.416L261.181 208.282C261.106 208.906 260.583 209.349 259.986 209.349ZM198.438 206.59H258.96L271.165 147.463H186.214L198.438 206.59Z" fill="#2E4344"/>
<path d="M184.721 147.866C184.142 147.866 183.601 147.423 183.47 146.799L180.708 133.402C179.644 128.285 175.52 124.699 170.649 124.699H155.495C154.786 124.699 154.226 124.075 154.226 123.329C154.226 122.584 154.805 121.959 155.495 121.959H170.649C176.714 121.959 181.865 126.412 183.19 132.818L185.952 146.214C186.102 146.96 185.672 147.685 184.982 147.866C184.907 147.846 184.814 147.866 184.721 147.866Z" fill="#2E4344"/>
<path d="M262.972 219.925H196.59C193.175 219.925 190.413 216.924 190.413 213.257C190.413 209.591 193.193 206.589 196.59 206.589H259.986C260.695 206.589 261.255 207.214 261.255 207.959C261.255 208.725 260.677 209.329 259.986 209.329H196.59C194.593 209.329 192.951 211.082 192.951 213.237C192.951 215.393 194.574 217.166 196.59 217.166H262.972C263.681 217.166 264.241 217.79 264.241 218.535C264.241 219.321 263.681 219.925 262.972 219.925Z" fill="#2E4344"/>
<path d="M197.15 208.301C196.982 208.301 196.833 208.16 196.833 207.959V146.093C196.833 145.912 196.963 145.75 197.15 145.75C197.318 145.75 197.467 145.892 197.467 146.093V207.959C197.448 208.16 197.318 208.301 197.15 208.301ZM212.938 208.301C212.77 208.301 212.621 208.16 212.621 207.959V146.093C212.621 145.912 212.752 145.75 212.938 145.75C213.106 145.75 213.255 145.892 213.255 146.093V207.959C213.255 208.16 213.106 208.301 212.938 208.301ZM228.727 208.301C228.559 208.301 228.409 208.16 228.409 207.959V146.093C228.409 145.912 228.54 145.75 228.727 145.75C228.895 145.75 229.044 145.892 229.044 146.093V207.959C229.044 208.16 228.895 208.301 228.727 208.301ZM244.515 208.301C244.347 208.301 244.198 208.16 244.198 207.959V146.093C244.198 145.912 244.328 145.75 244.515 145.75C244.683 145.75 244.832 145.892 244.832 146.093V207.959C244.832 208.16 244.702 208.301 244.515 208.301ZM260.303 208.301C260.135 208.301 259.986 208.16 259.986 207.959V146.093C259.986 145.912 260.117 145.75 260.303 145.75C260.471 145.75 260.621 145.892 260.621 146.093V207.959C260.621 208.16 260.49 208.301 260.303 208.301Z" fill="#2E4344"/>
<path d="M270.605 156.67H186.848C186.68 156.67 186.531 156.529 186.531 156.327C186.531 156.146 186.662 155.985 186.848 155.985H270.605C270.773 155.985 270.922 156.126 270.922 156.327C270.922 156.529 270.773 156.67 270.605 156.67ZM267.656 173.733H189.778C189.61 173.733 189.461 173.592 189.461 173.39C189.461 173.209 189.592 173.048 189.778 173.048H267.656C267.824 173.048 267.974 173.189 267.974 173.39C267.974 173.572 267.843 173.733 267.656 173.733ZM264.391 190.776H193.063C192.895 190.776 192.745 190.635 192.745 190.433C192.745 190.252 192.876 190.091 193.063 190.091H264.391C264.558 190.091 264.708 190.232 264.708 190.433C264.708 190.614 264.558 190.776 264.391 190.776Z" fill="#2E4344"/>
<path opacity="0.2" d="M253.641 30.4194H207.825C205.1 30.4194 202.898 32.7966 202.898 35.7378V79.2514C202.898 82.1926 205.1 84.5697 207.825 84.5697H223.016C225.125 84.5697 227.028 85.9194 227.887 87.9944L230.724 94.8639L233.56 87.9944C234.419 85.9194 236.322 84.5697 238.431 84.5697H253.622C256.347 84.5697 258.549 82.1926 258.549 79.2514V35.7378C258.568 32.7966 256.366 30.4194 253.641 30.4194Z" fill="black"/>
<path d="M251.887 30.4194H206.071C203.346 30.4194 201.144 32.7966 201.144 35.7378V79.2514C201.144 82.1926 203.346 84.5697 206.071 84.5697H221.262C223.371 84.5697 225.274 85.9194 226.133 87.9944L228.969 94.8639L231.806 87.9944C232.664 85.9194 234.568 84.5697 236.677 84.5697H251.868C254.593 84.5697 256.795 82.1926 256.795 79.2514V35.7378C256.814 32.7966 254.611 30.4194 251.887 30.4194Z" fill="#00CBD3"/>
<path d="M221.206 38.2759H239.159V50.3831C239.159 53.2236 240.745 55.7619 243.19 56.8296L246.811 58.4009C249.33 59.5089 250.972 62.1278 250.972 65.0488V71.314H232.72L230.481 68.2721L227.719 71.314H221.224L221.206 38.2759Z" fill="#4BF8FF"/>
<path d="M221.206 66.4585V71.3336H227.7L230.462 68.2917L232.702 71.3336H250.954V66.4585H221.206Z" fill="white"/>
<path d="M229.492 66.4592C229.492 61.5035 225.797 57.1521 221.206 57.1118M243.825 57.1118C243.825 57.1118 240.372 59.0457 240.372 66.4592" stroke="white" stroke-width="1.755" stroke-miterlimit="10"/>
<path d="M235.408 38.2759V53.7474" stroke="white" stroke-width="1.755" stroke-miterlimit="10"/>
<path d="M208.646 43.1514H226.599V55.2586C226.599 58.0991 228.185 60.6374 230.63 61.7051L234.251 63.2764C236.77 64.3844 238.412 67.0033 238.412 69.9243V76.1895H220.161L217.921 73.1476L215.159 76.1895H208.665L208.646 43.1514Z" fill="#72FAFF"/>
<path d="M208.646 71.334V76.2091H215.14L217.902 73.1672L220.142 76.2091H238.394V71.334H208.646Z" fill="white"/>
<path d="M216.932 71.3342C216.932 66.3785 213.237 62.0271 208.646 61.9868M231.265 61.9868C231.265 61.9868 227.812 63.9208 227.812 71.3342" stroke="white" stroke-width="1.755" stroke-miterlimit="10"/>
<path d="M222.848 43.1514V58.6229" stroke="white" stroke-width="1.755" stroke-miterlimit="10"/>
<path d="M73.026 232.697H84.8207L59.9064 0.0200195H48.1117C44.7525 0.0200195 42.3264 2.96122 42.7183 6.6075L66.2143 226.15C66.6248 229.756 69.6668 232.697 73.026 232.697Z" fill="#00CBD3"/>
<path d="M174.662 232.697H86.1271C82.6186 232.697 79.4459 229.615 79.0354 225.828L55.5767 6.86951C55.1661 3.08222 57.6856 0 61.2128 0H149.766C153.274 0 156.447 3.08222 156.858 6.86951L180.298 225.828C180.708 229.635 178.189 232.697 174.662 232.697Z" fill="#2E4344"/>
<path d="M173.915 220.186H84.1861L61.9592 12.5298H151.688L173.915 220.186Z" fill="url(#paint0_linear_1_203)"/>
<path d="M78.1582 163.801H167.962L173.915 220.187H84.1862L78.1582 163.801Z" fill="white"/>
<path d="M58.9919 101.774C57.4056 101.774 55.9873 100.384 55.8006 98.6914L50.4632 48.8522C50.2766 47.1399 51.415 45.77 53.0013 45.77C54.5876 45.77 56.0059 47.16 56.1925 48.8522L61.53 98.6914C61.7166 100.384 60.5782 101.774 58.9919 101.774Z" stroke="white" stroke-width="1.755" stroke-miterlimit="10"/>
<path d="M54.4569 48.7917C54.5316 49.4767 54.0837 50.0004 53.4678 50.0004C52.8333 50.0004 52.2734 49.4565 52.2175 48.7917C52.1428 48.1068 52.5907 47.583 53.2066 47.583C53.8224 47.583 54.3823 48.1269 54.4569 48.7917Z" stroke="white" stroke-width="1.755" stroke-miterlimit="10"/>
<path d="M111.303 7.35362H95.2157C94.5811 7.35362 94.0213 6.8097 93.9653 6.1449C93.8906 5.45997 94.3385 4.93619 94.9544 4.93619H111.041C111.676 4.93619 112.236 5.48011 112.292 6.1449C112.385 6.78955 111.937 7.35362 111.303 7.35362ZM118.32 6.12476C118.45 7.27304 117.685 8.19971 116.621 8.19971C115.558 8.19971 114.587 7.27304 114.475 6.12476C114.345 4.97648 115.11 4.0498 116.174 4.0498C117.237 4.0498 118.208 4.97648 118.32 6.12476Z" fill="#00CBD3"/>
<path d="M147.825 209.007H107.887C102.121 209.007 96.914 203.97 96.2421 197.746C95.5703 191.521 99.7133 186.484 105.48 186.484H145.418C151.184 186.484 156.391 191.521 157.063 197.746C157.735 203.97 153.592 209.007 147.825 209.007Z" stroke="#00DAE2" stroke-width="2.07" stroke-miterlimit="10"/>
<path d="M121.25 199.941C121.436 201.694 120.205 202.741 117.667 202.741H112.553L111.452 192.548H116.286C118.768 192.548 120.093 193.636 120.279 195.207C120.391 196.174 120.018 196.96 119.253 197.423C120.354 197.846 121.1 198.712 121.25 199.941ZM114.326 194.623L114.531 196.597H116.379C117.275 196.597 117.685 196.255 117.629 195.61C117.555 194.965 117.069 194.643 116.174 194.643L114.326 194.623ZM118.506 199.639C118.432 198.934 117.909 198.612 116.995 198.612H114.755L114.979 200.687H117.219C118.133 200.666 118.581 200.324 118.506 199.639ZM122.239 198.209L121.642 192.548H124.31L124.908 198.128C125.094 199.881 125.841 200.586 126.96 200.586C128.062 200.586 128.659 199.881 128.491 198.128L127.875 192.548H130.506L131.104 198.209C131.421 201.251 129.965 202.963 127.166 202.963C124.385 202.943 122.556 201.251 122.239 198.209ZM137.822 199.095L138.214 202.761H135.545L135.153 199.055L130.842 192.568H133.66L136.329 196.617L138.139 192.568H140.733L137.822 199.095Z" fill="#00CBD3"/>
<path d="M96.1488 65.5524H138.345L122.985 38.5981C120.354 34.005 114.158 34.005 111.527 38.5981L96.1488 65.5524Z" stroke="#00787D" stroke-width="2.404" stroke-miterlimit="10"/>
<path d="M101.897 104.252C101.897 104.252 102.326 92.3457 109.119 92.3457C115.912 92.3457 117.928 104.252 117.928 104.252" stroke="white" stroke-width="1.445" stroke-miterlimit="10"/>
<path d="M135.023 163.801H84.8207L91.1846 101.472H128.659L135.023 163.801Z" fill="white"/>
<path d="M123.751 101.472L117.387 163.801H135.023L128.659 101.472H123.751Z" fill="#4BF8FF"/>
<path d="M115.483 104.252C115.483 104.252 115.054 92.3457 108.261 92.3457C101.468 92.3457 99.452 104.252 99.452 104.252" stroke="white" stroke-width="1.445" stroke-miterlimit="10"/>
<path d="M140.901 130.762C140.901 130.762 135.023 122.563 131.085 123.893C127.147 125.222 129.853 131.447 140.267 131.024M141.853 130.762C141.853 130.762 147.732 122.563 151.67 123.893C155.607 125.222 152.901 131.447 142.488 131.024" stroke="white" stroke-width="1.71" stroke-miterlimit="10"/>
<path d="M136.329 122.302L141.107 130.702" stroke="white" stroke-width="1.71" stroke-miterlimit="10"/>
<path d="M146.407 122.302L141.648 130.702" stroke="white" stroke-width="1.71" stroke-miterlimit="10"/>
<path d="M157.268 130.017H125.486V163.801H157.268V130.017Z" fill="#00F6FF"/>
<path d="M159.116 130.017H123.639V139.244H159.116V130.017Z" fill="#00F6FF"/>
<path d="M143.999 130.017H138.755V163.801H143.999V130.017Z" fill="white"/>
<path opacity="0.2" d="M125.486 139.244H157.25V147.261L125.486 141.56V139.244Z" fill="black"/>
<path d="M143.495 82.3534H90.998C89.9529 82.3534 89.1131 81.4267 89.1131 80.3187V64.686C89.1131 63.5579 89.9715 62.6514 90.998 62.6514H143.495C144.54 62.6514 145.38 63.578 145.38 64.686V80.3187C145.38 81.4267 144.54 82.3534 143.495 82.3534Z" fill="white"/>
<path d="M97.2685 76.7731L98.0523 74.9198C98.8922 75.5845 100.124 76.0277 101.318 76.0277C102.662 76.0277 103.222 75.5443 103.222 74.8795C103.222 72.8851 97.4738 74.255 97.4738 70.2864C97.4738 68.4733 98.8175 66.9624 101.636 66.9624C102.886 66.9624 104.155 67.2847 105.069 67.9092L104.36 69.7827C103.446 69.2187 102.494 68.9366 101.617 68.9366C100.273 68.9366 99.732 69.4806 99.732 70.1454C99.732 72.1196 105.48 70.7497 105.48 74.678C105.48 76.4709 104.118 77.9818 101.281 77.9818C99.732 78.002 98.1457 77.4983 97.2685 76.7731ZM114.606 75.5241H110.015L109.138 77.8005H106.805L111.209 67.1437H113.468L117.891 77.8005H115.483L114.606 75.5241ZM113.897 73.6708L112.329 69.5813L110.761 73.6708H113.897ZM119.981 67.1437H122.276V75.8061H127.222V77.8207H119.981V67.1437ZM137.206 75.8464V77.8207H129.555V67.1639H137.019V69.1582H131.831V71.4749H136.422V73.3887H131.831V75.8666L137.206 75.8464Z" fill="#4BF8FF"/>
<path d="M95.197 29.8748H82.3946L61.9592 12.5298H74.7803L95.197 29.8748Z" fill="#2FC0C5"/>
<path d="M108.018 29.8748H95.197L74.7803 12.5298H87.5827L108.018 29.8748Z" fill="#64E0E5"/>
<path d="M120.821 29.8748H108.018L87.5827 12.5298H100.404L120.821 29.8748Z" fill="#2FC0C5"/>
<path d="M133.642 29.8748H120.821L100.404 12.5298H113.206L133.642 29.8748Z" fill="#64E0E5"/>
<path d="M146.463 29.8748H133.642L113.206 12.5298H126.027L146.463 29.8748Z" fill="#2FC0C5"/>
<path d="M159.265 29.8748H146.463L126.027 12.5298H138.83L159.265 29.8748Z" fill="#64E0E5"/>
<path d="M172.086 29.8748H159.265L138.83 12.5298H151.651L172.086 29.8748Z" fill="#2FC0C5"/>
<path d="M88.7958 43.7151C85.2499 43.7151 82.3946 40.6127 82.3946 36.8053V29.8955H95.2157V36.8053C95.197 40.6127 92.3417 43.7151 88.7958 43.7151Z" fill="#4BF8FF"/>
<path d="M101.598 43.7151C98.0524 43.7151 95.197 40.6127 95.197 36.8053V29.8955H108.018V36.8053C108.018 40.6127 105.144 43.7151 101.598 43.7151Z" fill="#82FAFF"/>
<path d="M114.419 43.7151C110.873 43.7151 108.018 40.6127 108.018 36.8053V29.8955H120.839V36.8053C120.82 40.6127 117.965 43.7151 114.419 43.7151Z" fill="#4BF8FF"/>
<path d="M127.24 43.7151C123.695 43.7151 120.839 40.6127 120.839 36.8053V29.8955H133.66V36.8053C133.642 40.6127 130.768 43.7151 127.24 43.7151Z" fill="#82FAFF"/>
<path d="M142.749 43.7151H137.337C135.303 43.7151 133.642 41.9222 133.642 39.7264V29.8955H146.463V39.7264C146.463 41.9222 144.802 43.7151 142.749 43.7151Z" fill="#4BF8FF"/>
<path d="M152.864 43.7151C149.318 43.7151 146.463 40.6127 146.463 36.8053V29.8955H159.284V36.8053C159.265 40.6127 156.391 43.7151 152.864 43.7151Z" fill="#82FAFF"/>
<path d="M165.685 43.7151C162.139 43.7151 159.284 40.6127 159.284 36.8053V29.8955H172.105V36.8053C172.086 40.6127 169.212 43.7151 165.685 43.7151Z" fill="#4BF8FF"/>
<path d="M64.5533 36.8047H82.3946V29.8748L61.9592 12.5298L64.5533 36.8047Z" fill="#229296"/>
<path opacity="0.2" d="M105.051 199.639H29.0014C27.3031 199.639 25.9221 198.148 25.9221 196.315V147.725C25.9221 145.892 27.3031 144.401 29.0014 144.401H105.069C106.768 144.401 108.149 145.892 108.149 147.725V196.315C108.13 198.148 106.749 199.639 105.051 199.639Z" fill="black"/>
<path d="M102.979 197.242H26.9299C25.2316 197.242 23.8506 195.751 23.8506 193.918V145.328C23.8506 143.495 25.2316 142.004 26.9299 142.004H102.998C104.696 142.004 106.077 143.495 106.077 145.328V193.918C106.059 195.751 104.678 197.242 102.979 197.242Z" fill="#4BF8FF"/>
<path d="M106.059 165.312H23.8506V177.157H106.059V165.312Z" fill="#2E4344"/>
<path d="M46.8613 153.607C46.8613 157.878 43.6701 161.323 39.7136 161.323C35.7572 161.323 32.5659 157.878 32.5659 153.607C32.5659 149.336 35.7572 145.892 39.7136 145.892C43.6514 145.892 46.8613 149.357 46.8613 153.607Z" fill="white"/>
<path d="M56.7524 153.607C56.7524 157.878 53.5611 161.323 49.6047 161.323C45.6483 161.323 42.457 157.878 42.457 153.607C42.457 149.336 45.6483 145.892 49.6047 145.892C53.5611 145.892 56.7524 149.357 56.7524 153.607Z" fill="#A4FCFF"/>
<path d="M42.4756 153.608C42.4756 155.783 43.3341 157.758 44.6778 159.148C46.0215 157.738 46.88 155.783 46.88 153.608C46.88 151.432 46.0215 149.458 44.6778 148.068C43.3155 149.458 42.4756 151.432 42.4756 153.608Z" fill="#4BF8FF"/>
<path d="M84.0183 184.954H63.7509C62.8364 184.954 62.0899 184.148 62.0899 183.161C62.0899 182.173 62.8364 181.368 63.7509 181.368H84.0183C84.9327 181.368 85.6792 182.173 85.6792 183.161C85.6979 184.148 84.9327 184.954 84.0183 184.954ZM97.5672 191.883H63.7509C62.8364 191.883 62.0899 191.078 62.0899 190.091C62.0899 189.103 62.8364 188.298 63.7509 188.298H97.5672C98.4816 188.298 99.2281 189.103 99.2281 190.091C99.2281 191.078 98.4816 191.883 97.5672 191.883Z" stroke="#A4FCFF" stroke-width="2.353" stroke-miterlimit="10"/>
<defs>
<linearGradient id="paint0_linear_1_203" x1="61.9579" y1="116.36" x2="173.919" y2="116.36" gradientUnits="userSpaceOnUse">
<stop stop-color="#9FFCFF"/>
<stop offset="0.922" stop-color="#5CE1E6"/>
</linearGradient>
</defs>
</svg>
