<svg width="394" height="394" viewBox="0 0 394 394" fill="none" xmlns="http://www.w3.org/2000/svg">
<path d="M177.174 341.316C177.092 341.316 177.014 341.315 176.933 341.315C176.851 341.315 176.773 341.316 176.692 341.316H177.174ZM294.697 316.711C280.155 302.409 182.281 304.969 176.933 305.12C171.584 304.969 73.7102 302.409 59.1679 316.711C42.7847 332.823 76.9277 341.301 176.933 341.315C276.938 341.301 311.081 332.823 294.697 316.711Z" fill="#44D5DA"/>
<path d="M188.388 330.925C81.242 330.925 37.9411 299.092 59.7216 195.847C77.8749 127.214 179.527 149.309 207.355 218.974C214.226 236.177 283.324 245.623 288.121 272.411C295.354 312.805 270.171 330.925 188.388 330.925Z" fill="#62E0E5"/>
<path d="M188.388 330.925C81.242 330.925 37.9411 299.093 59.7216 195.847C59.7216 195.847 36.0108 289.467 136.365 307.862C143.691 309.206 215.612 318.496 228.109 309.031C231.078 303.483 181.534 290.121 179.712 291.142C200.265 279.306 230.528 247.506 267.445 250.864C272.063 252.961 286.905 262.1 288.121 272.411C295.354 312.805 270.171 330.925 188.388 330.925Z" fill="#41C8CD"/>
<path d="M116.768 276.383C116.768 276.383 94.056 261.143 90.4927 225.228C86.9302 189.313 111.585 171.793 128.763 182.524C145.94 193.254 147.72 282.864 116.768 276.384V276.383Z" fill="#41C8CD"/>
<path d="M324.024 299.089C327.961 300.475 329.36 302.296 331.785 302.874C335.733 303.816 337.968 301.45 337.237 286.643C337.39 274.483 339.556 271.33 336.145 271.258C332.935 271.872 337.008 276.87 326.369 286.098C326.369 286.098 318.588 297.173 324.024 299.089Z" fill="#BDF5F7"/>
<path d="M331.515 280.29C331.515 280.29 329.779 286.042 337.226 290.127C337.113 299.941 336.587 302.588 332.939 302.977C333.634 306.051 338.769 308.011 339.374 292.937C339.816 281.929 340.409 273.318 337.624 270.425C334.84 267.529 331.515 280.291 331.515 280.291V280.29ZM139.609 154.274C158.065 152.885 181.487 159.269 196.379 169.755C207.497 177.583 213.595 183.591 208.401 188.384C201.396 193.886 195.37 197.496 190.296 201.119C198.477 220.79 210.646 246.154 210.646 246.154C210.646 246.154 172.58 235.037 104.377 248.062C86.2879 156.446 139.609 154.274 139.609 154.274Z" fill="#44D5DA"/>
<path d="M306.146 319.316C307.661 321.822 308.468 325.037 310.187 326.784C313.011 329.658 315.952 329.402 324.637 317.288C332.364 307.79 337.126 307.7 334.482 305.58C331.414 303.453 328.683 309.445 316.408 310.282C316.408 310.282 303.2 314.444 306.146 319.316Z" fill="#BDF5F7"/>
<path d="M114.013 269.431C137.899 257.136 188.199 242.325 212.205 245.919C251.458 251.797 284.164 267.827 327.003 284.853C331.491 292.139 323.866 300.271 323.866 300.271C323.866 300.271 305.001 298.145 277.366 288.736C291.321 296.073 318.966 309.938 318.966 309.938C315.012 316.665 306.745 320.795 306.745 320.795L208.202 289.219C197.188 289.984 187.567 290.747 179.712 291.142C179.302 291.162 180.09 291.278 179.712 291.142C143.113 277.972 125.172 277.511 118.961 276.619C118.145 276.503 117.18 276.553 116.768 276.384C115.503 274.214 114.575 271.87 114.013 269.431Z" fill="#259296"/>
<path d="M277.366 288.736C266.347 282.537 210.611 258.196 197.289 255.609C191.776 254.655 234.244 259.69 253.191 270.115C263.653 275.87 285.737 288.524 321.722 295.826C321.722 295.826 326.402 293.232 327.003 284.853C331.357 291.493 325.172 299.384 323.866 300.271C300.303 298.398 277.366 288.736 277.366 288.736Z" fill="#23696C"/>
<path d="M212.205 245.919C212.205 245.919 156.29 253.772 136.766 272.075C136.972 286.955 221.821 280.121 221.821 280.121C221.821 280.121 304.977 312.386 307.244 314.462C313.691 313.257 318.966 309.938 318.966 309.938C318.966 309.938 314.982 317.689 306.745 320.795L208.202 289.219C208.202 289.219 195.212 290.412 179.712 291.142C158.461 284.107 142.374 279.035 116.768 276.384C114.59 272.517 114.013 269.431 114.013 269.431C114.013 269.431 149.864 251.101 212.205 245.919Z" fill="#23696C"/>
<path d="M100.643 211.989C100.643 211.989 102.936 216.05 109.125 214.443C137.402 211.92 140.07 202.288 140.07 202.288C140.07 202.288 144.976 190.705 139.57 170.036C137.79 161.021 153.899 186.827 145.878 210.771C137.371 236.172 201.709 227.181 201.709 227.181L212.205 245.919C212.205 245.919 158.754 249.403 114.014 269.431C114.014 269.431 99.5795 252.853 100.643 211.989Z" fill="#28BBC1"/>
<path d="M153.445 137.176C153.445 137.176 153.156 150.04 149.052 154.467C149.052 154.467 150.172 171.171 157.146 170.712C166.505 170.097 162.01 156.098 162.01 156.098L162.913 143.927L153.445 137.176Z" fill="#90E4E7"/>
<path d="M187.89 195.847C187.89 195.847 182.053 184.218 172.042 166.54C169.454 164.492 177.317 169.353 188.191 187.774C190.022 184.091 204.116 178.596 208.538 180.253C211.204 183.814 210.052 185.987 210.052 185.987C208.799 189.405 201.6 191.355 187.89 195.847Z" fill="#28BBC1"/>
<path d="M107.79 189.053C111.105 173.395 120.525 165.681 127.843 161.966C128.102 161.834 128.386 161.754 128.678 161.73C128.969 161.706 129.263 161.738 129.541 161.826C129.82 161.913 130.078 162.054 130.302 162.239C130.525 162.425 130.709 162.652 130.843 162.907C130.977 163.163 131.059 163.442 131.083 163.729C131.108 164.015 131.075 164.304 130.986 164.578C130.897 164.852 130.754 165.106 130.565 165.326C130.377 165.545 130.146 165.726 129.886 165.858C120.492 170.626 114.525 178.731 112.15 189.946C112.03 190.514 111.685 191.013 111.191 191.331C110.697 191.649 110.095 191.762 109.516 191.643C108.938 191.525 108.432 191.186 108.108 190.7C107.784 190.214 107.67 189.622 107.79 189.053ZM137.194 158.549C138.358 158.269 139.535 158.039 140.719 157.858C141.009 157.812 141.306 157.822 141.592 157.889C141.878 157.956 142.147 158.078 142.385 158.248C142.623 158.418 142.824 158.632 142.977 158.879C143.13 159.126 143.232 159.4 143.277 159.686C143.322 159.971 143.308 160.263 143.238 160.544C143.168 160.824 143.042 161.089 142.867 161.321C142.692 161.554 142.473 161.75 142.221 161.898C141.968 162.047 141.689 162.145 141.398 162.187C140.34 162.349 139.29 162.555 138.25 162.804C138.215 162.813 138.18 162.82 138.145 162.827C137.574 162.937 136.981 162.823 136.494 162.509C136.007 162.194 135.665 161.705 135.541 161.146C135.417 160.586 135.52 160.001 135.829 159.516C136.138 159.031 136.628 158.683 137.194 158.549Z" fill="#A5F3F6"/>
<path d="M324.624 309.009C324.624 309.009 319.548 312.338 322.616 320.162C316.143 327.634 314.017 329.336 310.96 327.34C309.495 330.139 312.166 334.878 322.439 323.673C329.939 315.492 335.996 309.248 335.738 305.269C335.482 301.293 324.624 309.009 324.624 309.009Z" fill="#44D5DA"/>
<path d="M263.851 263.404C264.617 263.181 265.065 262.837 265.058 262.231L265.054 261.904C265.026 261.581 264.891 261.275 264.67 261.034C264.45 260.793 264.155 260.63 263.831 260.568L230.085 253.976L163.616 267.852L197.362 274.445C198.03 274.575 199.447 276.035 197.891 276.968L263.851 263.404Z" fill="#D6E2E2"/>
<path d="M266.028 260.729C265.869 261.797 264.739 262.875 263.506 263.137L200.561 276.459C199.568 276.65 197.091 274.932 197.467 272.216L203.448 232.084C203.608 231.017 204.738 229.938 205.971 229.678L270.533 215.999C271.766 215.737 272.637 216.392 272.48 217.46L266.028 260.729Z" fill="#5CE1E6"/>
<path d="M266.818 260.565C266.659 261.632 265.53 262.709 264.298 262.971L201.258 276.325C200.024 276.587 199.152 275.933 199.311 274.865L205.761 231.595C205.919 230.528 207.049 229.449 208.283 229.188L271.323 215.831C272.556 215.57 273.428 216.224 273.268 217.293L266.818 260.565Z" fill="#D6E2E2"/>
<path d="M198.585 275.781C198.556 275.458 198.422 275.152 198.201 274.911C197.98 274.67 197.685 274.506 197.362 274.445L163.616 267.852C162.947 267.72 162.413 268.109 162.419 268.716L162.422 269.042C162.45 269.365 162.585 269.67 162.806 269.911C163.027 270.152 163.321 270.316 163.645 270.378L197.392 276.97C198.06 277.099 198.595 276.714 198.589 276.106L198.585 275.781Z" fill="#5CE1E6"/>
<path d="M181.859 248.872C171.6 235.846 137.733 215.618 137.733 215.618L138.062 200.038C138.062 200.038 123.581 189.733 105.672 201.768C104.421 221.974 108.821 229.553 110.904 231.614C114.835 235.506 149.879 243.732 173.982 253.287C173.982 253.287 177.135 256.519 180.361 257.605C184.385 258.958 182.542 264.374 184.901 265.445C185.581 265.697 185.944 261.972 184.903 258.736C187.646 259.647 188.435 266.181 190.834 265.898C191.117 263.498 190.026 259.854 187.389 257.628C191.139 259.02 193.832 265.056 195.716 264.372C196.291 261.581 189.533 256.056 189.702 256.145C191.132 256.9 194.888 260.352 196.527 260.261C198.71 260.14 192.805 255.098 186.365 251.618C191.886 252.815 190.495 249.107 190.495 249.107C190.495 249.107 185.387 248.774 181.859 248.872Z" fill="#BDF5F7"/>
<path d="M105.672 201.768C105.672 201.768 121.723 189.665 138.062 200.038L138 202.973C138 202.973 124.598 198.39 115.214 207.666C113.531 217.341 116.672 226.165 121.008 228.824C125.343 231.484 174.644 251.729 174.644 251.729C174.644 251.729 177.088 255.587 180.361 257.605C180.361 257.605 178.066 257.184 173.982 253.287L141.061 242.212C141.061 242.212 113.836 235.146 110.904 231.614C107.972 228.082 104.614 220.696 105.672 201.768Z" fill="#A7F0F3"/>
<path d="M187.823 112.908C187.834 113.864 196.451 161.012 172.433 161.289C151.33 161.534 150.831 138.309 150.831 138.309C150.831 138.309 141.29 138.996 141.169 131.525C141.041 123.616 150.68 125.748 150.68 125.748C150.68 125.748 147.77 103.657 164.773 100.714C185.558 97.1164 187.823 112.909 187.823 112.909V112.908Z" fill="#BDF5F7"/>
<path d="M186.152 151.373C183.677 157.13 179.446 161.209 172.433 161.289C151.33 161.534 150.831 138.31 150.831 138.31C150.831 138.31 152.656 148.666 159.343 154.185C167.954 161.292 177.846 161.726 186.152 151.373Z" fill="#A7F0F3"/>
<path d="M178.342 141.273C179.997 141.254 181.142 140.729 181.75 139.706C183.911 136.069 178 127.353 177.747 126.984C177.715 126.935 177.673 126.893 177.624 126.86C177.575 126.828 177.52 126.805 177.462 126.793C177.404 126.781 177.345 126.781 177.287 126.793C177.229 126.804 177.173 126.826 177.124 126.859C177.075 126.892 177.033 126.933 177.001 126.982C176.968 127.031 176.946 127.085 176.935 127.142C176.925 127.2 176.925 127.258 176.938 127.315C176.951 127.372 176.975 127.426 177.009 127.474C178.642 129.863 182.543 136.638 180.98 139.263C180.462 140.136 179.319 140.508 177.576 140.369C177.459 140.361 177.343 140.398 177.253 140.474C177.164 140.549 177.109 140.656 177.099 140.771C177.09 140.887 177.127 141.001 177.203 141.089C177.279 141.178 177.387 141.233 177.504 141.243C177.797 141.266 178.077 141.277 178.342 141.273Z" fill="#86E5E9"/>
<path d="M171.517 122.775C172.413 121.997 167.552 118.199 164.53 122.063C168.325 120.227 171.118 123.121 171.517 122.775ZM182.548 122.454C181.559 121.45 185.771 118.509 188.369 121.734C185.107 120.282 182.857 122.767 182.548 122.454Z" fill="#256D70"/>
<path d="M153.9 100.373C141.076 98.7585 142.477 119.714 148.493 125.566C149.225 125.583 149.956 125.644 150.68 125.748C150.68 125.748 151.353 129.54 152.918 129.96C154.481 130.38 155.581 110.546 155.581 110.546C155.581 110.546 194.407 116.998 200.805 102.688C203.403 96.4158 194.957 102.212 188.989 101.948C188.989 101.948 200.864 90.4619 186.052 95.8893C176.817 98.6933 172.758 94.6499 163.255 94.4703C154.273 94.3004 153.9 100.373 153.9 100.373Z" fill="#256D70"/>
<path d="M147.747 135.119C147.747 135.119 148.217 131.943 151.015 133.862C152.109 130.976 149.546 127.376 146.347 129.176C143.148 130.977 144.674 135.259 147.747 135.119Z" fill="#A7F0F3"/>
<path d="M182.98 127.408C183.007 127.817 183.156 128.208 183.409 128.532C183.662 128.857 184.007 129.101 184.4 129.232C184.794 129.364 185.219 129.378 185.62 129.273C186.022 129.167 186.383 128.947 186.657 128.64C186.932 128.332 187.107 127.952 187.162 127.547C187.217 127.141 187.148 126.729 186.964 126.362C186.78 125.995 186.49 125.69 186.13 125.485C185.77 125.281 185.357 125.185 184.942 125.212C184.386 125.247 183.866 125.499 183.499 125.911C183.131 126.323 182.944 126.861 182.98 127.408Z" fill="#256D70"/>
<path d="M185.3 126.756C185.306 126.855 185.342 126.95 185.404 127.029C185.465 127.108 185.549 127.167 185.644 127.199C185.739 127.231 185.842 127.235 185.94 127.209C186.038 127.184 186.125 127.13 186.192 127.056C186.259 126.982 186.301 126.889 186.315 126.791C186.328 126.693 186.312 126.593 186.267 126.503C186.223 126.414 186.153 126.34 186.066 126.29C185.978 126.24 185.878 126.217 185.777 126.223C185.71 126.227 185.645 126.244 185.585 126.273C185.524 126.302 185.471 126.343 185.426 126.392C185.382 126.442 185.348 126.499 185.326 126.562C185.304 126.624 185.296 126.69 185.3 126.756Z" fill="white"/>
<path d="M166.142 128.478C166.171 128.913 166.33 129.33 166.599 129.676C166.869 130.022 167.237 130.282 167.656 130.422C168.076 130.563 168.528 130.578 168.957 130.465C169.385 130.353 169.77 130.118 170.062 129.79C170.355 129.463 170.542 129.057 170.6 128.625C170.658 128.193 170.585 127.753 170.389 127.362C170.193 126.971 169.884 126.646 169.5 126.428C169.116 126.21 168.676 126.108 168.233 126.136C167.64 126.174 167.087 126.442 166.695 126.881C166.302 127.32 166.104 127.895 166.142 128.478Z" fill="#256D70"/>
<path d="M168.615 127.784C168.622 127.89 168.66 127.991 168.726 128.075C168.791 128.159 168.881 128.222 168.983 128.256C169.085 128.29 169.195 128.294 169.299 128.267C169.403 128.239 169.496 128.182 169.567 128.103C169.638 128.023 169.684 127.925 169.698 127.82C169.712 127.715 169.695 127.608 169.647 127.513C169.6 127.418 169.525 127.339 169.431 127.286C169.338 127.233 169.231 127.208 169.124 127.214C169.052 127.219 168.982 127.237 168.918 127.268C168.854 127.299 168.796 127.342 168.749 127.395C168.702 127.448 168.665 127.51 168.642 127.576C168.619 127.643 168.61 127.714 168.615 127.784Z" fill="white"/>
<path d="M159.486 126.849C159.551 128.96 160.421 130.97 161.923 132.479C163.425 133.989 165.45 134.887 167.595 134.995C169.74 135.103 171.847 134.414 173.499 133.064C175.151 131.715 176.225 129.803 176.51 127.709C178.008 126.837 178.827 127.553 178.991 127.729C179.42 129.78 180.648 131.586 182.412 132.76C184.176 133.934 186.336 134.384 188.433 134.014C190.529 133.644 192.396 132.483 193.634 130.778C194.872 129.074 195.384 126.961 195.061 124.891C194.738 122.82 193.605 120.956 191.904 119.695C190.203 118.434 188.068 117.877 185.956 118.142C183.843 118.407 181.919 119.474 180.594 121.115C179.27 122.755 178.649 124.839 178.865 126.923C178.371 126.677 177.598 126.522 176.574 126.998C176.631 125.891 176.465 124.783 176.086 123.739C175.706 122.694 175.12 121.734 174.362 120.914C173.603 120.093 172.687 119.428 171.667 118.957C170.646 118.486 169.54 118.218 168.414 118.168C167.287 118.119 166.162 118.289 165.103 118.669C164.043 119.049 163.071 119.631 162.241 120.382C161.412 121.133 160.741 122.039 160.269 123.045C159.796 124.052 159.531 125.141 159.488 126.249L150.359 124.938L150.272 125.526L159.486 126.849ZM179.562 127.529C179.18 125.592 179.595 123.584 180.718 121.949C181.84 120.313 183.577 119.182 185.547 118.806C187.517 118.43 189.558 118.839 191.222 119.943C192.885 121.047 194.034 122.755 194.417 124.693C194.449 124.856 194.467 125.021 194.488 125.184L189.154 124.496L189.076 125.084L194.54 125.79C194.623 127.665 193.982 129.503 192.746 130.933C191.509 132.363 189.768 133.281 187.872 133.501C185.976 133.721 184.066 133.228 182.525 132.12C180.983 131.012 179.925 129.372 179.562 127.529ZM160.222 128.081C159.922 126.562 160.087 124.989 160.696 123.562C161.305 122.135 162.33 120.918 163.643 120.064C164.955 119.21 166.496 118.758 168.069 118.765C169.643 118.772 171.179 119.238 172.483 120.104C173.788 120.969 174.802 122.196 175.397 123.628C175.993 125.061 176.143 126.635 175.829 128.151C175.515 129.668 174.751 131.059 173.633 132.148C172.515 133.237 171.094 133.976 169.549 134.271C167.478 134.664 165.333 134.233 163.585 133.072C161.836 131.912 160.627 130.117 160.222 128.081Z" fill="#256D70"/>
<path d="M126.83 283.37C125.905 283.248 125.637 283.222 125.076 283.166L124.262 283.085C123.971 283.055 123.677 283.082 123.397 283.163C123.117 283.245 122.855 283.38 122.628 283.561C122.401 283.742 122.212 283.965 122.072 284.218C121.933 284.47 121.845 284.748 121.815 285.034C121.784 285.32 121.811 285.609 121.894 285.885C121.977 286.16 122.114 286.417 122.298 286.641C122.482 286.864 122.709 287.05 122.966 287.187C123.223 287.325 123.505 287.411 123.796 287.441L124.635 287.525C125.147 287.576 125.394 287.601 126.241 287.711C126.531 287.749 126.826 287.731 127.108 287.657C127.391 287.583 127.656 287.455 127.888 287.28C128.121 287.106 128.316 286.888 128.462 286.639C128.609 286.39 128.704 286.115 128.743 285.83C128.782 285.545 128.763 285.255 128.688 284.978C128.613 284.7 128.483 284.439 128.305 284.211C128.127 283.982 127.906 283.79 127.653 283.646C127.4 283.502 127.12 283.408 126.83 283.37ZM166.465 293.2C165.915 292.984 152.816 287.86 135.768 284.743C135.191 284.645 134.597 284.774 134.117 285.103C133.636 285.432 133.306 285.934 133.199 286.501C133.092 287.067 133.216 287.652 133.545 288.129C133.873 288.606 134.38 288.937 134.954 289.049C145.13 290.925 155.119 293.674 164.807 297.266C165.355 297.48 165.967 297.472 166.508 297.243C167.05 297.014 167.477 296.583 167.696 296.045C167.915 295.508 167.909 294.906 167.678 294.373C167.448 293.839 167.011 293.417 166.465 293.2Z" fill="#8DEDF1"/>
<path d="M173.095 149.176C173.093 147.393 174.021 146.423 175.674 145.853C177.545 145.208 179.784 146.051 179.885 146.084C179.93 146.099 181.171 146.485 181.606 145.34C181.624 145.308 181.648 145.28 181.677 145.258C181.707 145.236 181.74 145.22 181.776 145.211C181.812 145.203 181.85 145.202 181.886 145.209C181.922 145.216 181.957 145.231 181.987 145.252C182.049 145.29 182.094 145.351 182.111 145.421C182.127 145.492 182.115 145.566 182.076 145.628C181.828 146.035 181.429 146.331 180.962 146.452C180.606 146.573 180.224 146.601 179.853 146.534C179.638 150.199 177.663 151.422 176.721 151.672C175.668 151.953 173.098 151.836 173.095 149.176Z" fill="#256D70"/>
<path d="M179.297 147.666C175.237 147.397 175.239 147.356 174.161 147.227C174.926 146.12 177.279 145.714 179.492 146.472C179.449 146.873 179.384 147.271 179.297 147.666Z" fill="white"/>
<path d="M177.844 150.552C177.844 150.552 176.376 148.029 173.506 149.47C173.424 150.955 175.952 152.286 177.844 150.552Z" fill="#73E9ED"/>
<path d="M175.793 154.422C175.793 154.422 173.692 154.255 172.261 152.744C171.378 154.852 173.584 156.543 175.793 154.422Z" fill="#A7F0F3"/>
<path d="M207.665 184.291L203.266 185.293C203.266 185.293 190.978 180.851 183.446 165.144L183.462 165.127C183.462 165.127 182.233 163.301 182.895 160.183C183.494 157.36 186.752 155.186 185.659 154.606C183.906 153.432 180.435 157.698 180.435 157.698C178.646 159.413 177.382 160.876 174.601 160.767C165.909 157.869 162.987 158.635 163.576 160.635C166.652 161.589 168.697 162.396 170.146 163.29C168.893 162.697 167.268 162.085 166.608 162.519C165.814 163.042 165.871 164.147 166.593 164.97C165.795 165.53 165.934 167.348 167.248 167.976C167.137 169.181 167.638 170.452 169.308 170.637C170.978 170.823 174.6 170.5 175.316 173.314C177.324 181.508 181.648 198.496 185.809 210.579C193.381 232.566 213.311 235.012 216.905 220.008C221.215 202.016 207.665 184.291 207.665 184.291Z" fill="#BDF5F7"/>
<path d="M203.266 185.293C203.266 185.293 211.906 191.641 214.355 196.501C212.371 190.684 207.665 184.292 207.665 184.292L203.266 185.293ZM175.142 172.809C175.142 172.809 182.094 193.411 188.215 208.904C194.336 224.396 208.997 229.178 217.163 218.813C216.154 227.52 209.22 232.006 199.683 228.057C194.342 225.846 188.829 221.042 184.732 207.357C180.635 193.673 175.142 172.809 175.142 172.809Z" fill="#A7F0F3"/>
<path d="M277.356 98.3105C272.905 95.9826 267.754 95.3003 262.835 96.3873C257.917 97.4744 253.558 100.259 250.548 104.236C247.538 108.212 246.077 113.118 246.429 118.064C246.782 123.009 248.925 127.667 252.469 131.192L251.278 133.394L262.345 139.184L263.537 136.982C268.49 137.902 273.615 137.047 277.981 134.571C282.348 132.095 285.668 128.161 287.339 123.485C289.011 118.808 288.923 113.697 287.091 109.078C285.259 104.46 281.805 100.64 277.356 98.3105Z" fill="#44D5DA"/>
<path d="M251.136 135.822C250.904 135.702 250.65 135.629 250.388 135.606C250.127 135.584 249.864 135.612 249.614 135.69C249.363 135.768 249.132 135.894 248.931 136.061C248.731 136.227 248.566 136.431 248.446 136.661C248.326 136.89 248.254 137.141 248.233 137.398C248.212 137.655 248.243 137.914 248.325 138.159C248.406 138.405 248.536 138.632 248.707 138.827C248.878 139.023 249.087 139.184 249.321 139.3L258.538 143.955C258.77 144.075 259.025 144.149 259.287 144.172C259.549 144.196 259.813 144.168 260.063 144.09C260.314 144.012 260.547 143.886 260.747 143.719C260.948 143.553 261.114 143.348 261.234 143.118C261.354 142.888 261.426 142.637 261.447 142.379C261.468 142.122 261.436 141.862 261.355 141.617C261.273 141.371 261.142 141.144 260.97 140.948C260.799 140.752 260.589 140.592 260.354 140.476L251.136 135.822ZM248.764 140.365C248.295 140.129 247.75 140.085 247.248 140.243C246.746 140.402 246.329 140.75 246.088 141.211C245.847 141.673 245.802 142.209 245.964 142.703C246.125 143.196 246.479 143.606 246.948 143.843L256.165 148.499C256.634 148.736 257.18 148.78 257.681 148.621C258.183 148.463 258.601 148.114 258.841 147.653C259.082 147.192 259.127 146.656 258.965 146.162C258.804 145.668 258.45 145.258 257.981 145.021L248.764 140.365Z" fill="#28BBC1"/>
<path d="M241.87 105.746L237.638 103.531C237.465 103.443 237.312 103.323 237.187 103.176C237.062 103.03 236.968 102.861 236.91 102.678C236.852 102.496 236.832 102.304 236.85 102.113C236.868 101.923 236.924 101.738 237.015 101.569C237.106 101.401 237.231 101.251 237.381 101.13C237.531 101.009 237.705 100.918 237.891 100.863C238.077 100.808 238.272 100.79 238.466 100.81C238.659 100.83 238.846 100.888 239.017 100.979L243.251 103.194C243.422 103.283 243.574 103.404 243.697 103.55C243.821 103.697 243.914 103.866 243.971 104.048C244.028 104.23 244.047 104.421 244.029 104.61C244.011 104.8 243.954 104.984 243.863 105.152C243.772 105.32 243.649 105.469 243.499 105.589C243.35 105.71 243.177 105.801 242.992 105.856C242.807 105.911 242.612 105.93 242.42 105.911C242.227 105.892 242.04 105.836 241.87 105.746ZM233.474 128.43C233.211 128.293 232.997 128.081 232.86 127.822C232.723 127.563 232.668 127.269 232.704 126.979C232.74 126.689 232.865 126.417 233.061 126.198C233.258 125.979 233.517 125.823 233.805 125.752L239.974 124.228C240.161 124.182 240.355 124.172 240.546 124.2C240.737 124.227 240.921 124.292 241.086 124.389C241.252 124.487 241.397 124.615 241.512 124.767C241.627 124.92 241.71 125.093 241.757 125.277C241.804 125.461 241.814 125.652 241.786 125.84C241.758 126.028 241.692 126.208 241.593 126.371C241.494 126.534 241.364 126.676 241.209 126.79C241.054 126.903 240.878 126.985 240.691 127.031L234.522 128.556C234.168 128.643 233.795 128.599 233.474 128.43ZM258.379 92.3676C258.209 92.2787 258.058 92.1575 257.935 92.0111C257.812 91.8647 257.72 91.6959 257.664 91.5144L256.134 86.5886C256.021 86.2225 256.061 85.8276 256.245 85.4904C256.428 85.1532 256.739 84.9011 257.111 84.7893C257.483 84.6775 257.885 84.715 258.228 84.8938C258.572 85.0725 258.83 85.3778 258.945 85.743L260.475 90.6697C260.56 90.9432 260.561 91.2354 260.477 91.5093C260.394 91.7832 260.229 92.0264 260.005 92.2083C259.78 92.3901 259.506 92.5023 259.216 92.5307C258.927 92.559 258.636 92.5023 258.379 92.3676ZM279.393 94.6092C279.049 94.4292 278.792 94.1221 278.678 93.7555C278.564 93.389 278.603 92.9929 278.786 92.6546L281.245 88.1076C281.336 87.94 281.459 87.7916 281.608 87.6709C281.757 87.5501 281.929 87.4594 282.114 87.4039C282.298 87.3485 282.492 87.3293 282.684 87.3475C282.876 87.3657 283.063 87.4209 283.233 87.5101C283.404 87.5992 283.555 87.7205 283.678 87.867C283.8 88.0134 283.893 88.1823 283.949 88.3638C284.005 88.5454 284.025 88.7361 284.006 88.925C283.988 89.114 283.932 89.2975 283.841 89.4651L281.381 94.0118C281.291 94.1794 281.167 94.3278 281.018 94.4486C280.869 94.5693 280.698 94.66 280.513 94.7155C280.328 94.771 280.134 94.7902 279.942 94.7719C279.75 94.7537 279.564 94.6984 279.393 94.6092ZM294.831 133.455L290.598 131.24C290.426 131.152 290.273 131.031 290.148 130.884C290.024 130.738 289.93 130.568 289.872 130.386C289.815 130.204 289.794 130.012 289.813 129.822C289.831 129.632 289.887 129.447 289.978 129.278C290.07 129.11 290.194 128.961 290.344 128.84C290.494 128.719 290.668 128.628 290.854 128.573C291.04 128.518 291.235 128.5 291.428 128.52C291.621 128.54 291.808 128.597 291.979 128.688L296.212 130.902C296.556 131.082 296.813 131.389 296.927 131.756C297.041 132.123 297.002 132.519 296.819 132.857C296.636 133.196 296.324 133.449 295.951 133.561C295.578 133.673 295.175 133.635 294.831 133.455V133.455ZM276.161 150.765C275.84 150.597 275.594 150.317 275.47 149.98L273.308 144.097C273.239 143.918 273.206 143.727 273.213 143.535C273.219 143.343 273.265 143.154 273.346 142.98C273.427 142.805 273.543 142.648 273.687 142.518C273.83 142.388 273.999 142.288 274.183 142.223C274.366 142.157 274.561 142.129 274.756 142.138C274.951 142.148 275.142 142.196 275.318 142.279C275.494 142.362 275.651 142.478 275.781 142.622C275.911 142.765 276.01 142.933 276.073 143.115L278.235 148.998C278.336 149.273 278.35 149.571 278.275 149.854C278.2 150.137 278.039 150.39 277.815 150.582C277.59 150.773 277.312 150.893 277.017 150.926C276.722 150.958 276.423 150.902 276.161 150.765L276.161 150.765ZM292.652 110.3C292.396 110.166 292.185 109.959 292.048 109.707C291.911 109.456 291.852 109.169 291.88 108.885C291.908 108.6 292.021 108.33 292.205 108.109C292.389 107.887 292.636 107.725 292.914 107.641L297.922 106.136C298.107 106.081 298.301 106.062 298.493 106.08C298.685 106.098 298.871 106.154 299.042 106.243C299.212 106.332 299.363 106.453 299.486 106.6C299.608 106.746 299.7 106.915 299.757 107.097C299.813 107.278 299.833 107.469 299.814 107.658C299.795 107.847 299.739 108.03 299.649 108.198C299.558 108.365 299.435 108.514 299.286 108.634C299.137 108.755 298.965 108.846 298.78 108.901L293.773 110.406C293.4 110.518 292.997 110.48 292.652 110.3Z" fill="#D6E2E2"/>
<path d="M264.475 120.629L266.675 116.562C267.11 115.757 267.293 114.844 267.2 113.937C267.107 113.031 266.743 112.172 266.154 111.468C265.565 110.765 264.777 110.25 263.89 109.987C263.003 109.724 262.056 109.726 261.17 109.992C260.284 110.258 259.498 110.777 258.912 111.482C258.325 112.188 257.965 113.048 257.876 113.955C257.787 114.862 257.973 115.775 258.411 116.578C258.85 117.38 259.52 118.037 260.338 118.465L261.88 119.272L253.651 134.642L256.246 135.999L264.474 120.629L264.475 120.629ZM264.08 115.204L263.26 116.718L261.719 115.912C261.415 115.753 261.165 115.508 261.002 115.209C260.839 114.91 260.769 114.57 260.803 114.232C260.836 113.895 260.97 113.574 261.189 113.312C261.407 113.049 261.7 112.856 262.03 112.757C262.36 112.658 262.712 112.657 263.043 112.755C263.373 112.853 263.667 113.045 263.886 113.307C264.105 113.569 264.241 113.889 264.275 114.226C264.31 114.564 264.242 114.904 264.08 115.204ZM274.334 115.351C273.237 114.779 271.954 114.657 270.766 115.014C269.578 115.371 268.583 116.176 267.998 117.253L266.488 120.045L257.57 136.692L260.165 138.05L268.392 122.679L269.933 123.486C271.03 124.06 272.314 124.181 273.502 123.825C274.691 123.468 275.686 122.661 276.27 121.582C276.853 120.504 276.977 119.241 276.614 118.073C276.251 116.904 275.431 115.925 274.334 115.351V115.351ZM273.674 120.223C273.457 120.625 273.086 120.925 272.644 121.059C272.201 121.192 271.723 121.147 271.314 120.933L269.773 120.127L270.593 118.611C270.813 118.213 271.183 117.917 271.624 117.787C272.065 117.656 272.54 117.702 272.946 117.915C273.353 118.127 273.657 118.489 273.793 118.921C273.93 119.354 273.887 119.822 273.674 120.223Z" fill="white"/>
<path d="M62.7879 85.7529C62.788 92.2932 64.7601 98.6867 68.4549 104.125C72.1496 109.563 77.4012 113.801 83.5453 116.304C89.6894 118.807 96.4503 119.462 102.973 118.186C109.495 116.91 115.487 113.76 120.189 109.135C124.892 104.511 128.094 98.6182 129.391 92.2035C130.689 85.7889 130.023 79.1399 127.478 73.0974C124.933 67.055 120.623 61.8904 115.093 58.2569C109.563 54.6233 103.062 52.684 96.4121 52.6841C87.4943 52.6844 78.9419 56.1685 72.6362 62.3701C66.3305 68.5716 62.788 76.9826 62.7879 85.7529Z" fill="#23696C"/>
<path d="M97.5474 112.587C112.617 111.971 124.325 99.4567 123.698 84.6365C123.071 69.8163 110.347 58.3019 95.2774 58.9184C80.2079 59.5349 68.4999 72.0488 69.1268 86.869C69.7536 101.689 82.478 113.204 97.5474 112.587Z" fill="white"/>
<path d="M117.964 94.5323C122.895 82.8262 117.242 69.4058 105.339 64.557C93.4362 59.7082 79.79 65.2671 74.8596 76.9732C69.9293 88.6793 75.5817 102.1 87.4847 106.949C99.3876 111.797 113.034 106.238 117.964 94.5323Z" fill="#259296"/>
<path d="M96.4121 87.682H111.62C112.013 87.682 112.389 87.5286 112.667 87.2556C112.944 86.9826 113.1 86.6124 113.1 86.2263C113.1 85.8402 112.944 85.47 112.667 85.197C112.389 84.924 112.013 84.7706 111.62 84.7706H97.8933L97.8954 67.6376C97.8992 67.4441 97.8637 67.2519 97.791 67.0721C97.7183 66.8923 97.6098 66.7286 97.4721 66.5905C97.3343 66.4524 97.1699 66.3426 96.9885 66.2678C96.8071 66.1929 96.6123 66.1543 96.4156 66.1543C96.2188 66.1543 96.024 66.1929 95.8426 66.2678C95.6612 66.3426 95.4968 66.4524 95.359 66.5905C95.2212 66.7286 95.1128 66.8923 95.0401 67.0721C94.9674 67.2519 94.9319 67.4441 94.9357 67.6376L94.9322 86.2255C94.9323 86.6116 95.0882 86.9819 95.3657 87.255C95.6433 87.5281 96.0195 87.6817 96.4121 87.682Z" fill="white"/>
</svg>
