<svg width="21" height="19" viewBox="0 0 21 19" fill="none" xmlns="http://www.w3.org/2000/svg">
<path d="M12.4727 6.29883V3.85547H18.0313V0H2.60156V3.85547H8.17578V6.29883C3.50586 6.52344 0 7.46094 0 8.58398C0 9.70703 3.50195 10.6387 8.17578 10.8691V18.9336H12.4727V10.8691C17.1426 10.6465 20.6484 9.70898 20.6484 8.58398C20.6484 7.45898 17.1465 6.52344 12.4727 6.29883ZM10.3242 10.1387C5.26758 10.1387 1.16797 9.35742 1.16797 8.41601C1.16797 7.60547 4.1543 6.92578 8.17188 6.74414V9.50391C8.86328 9.53516 9.58203 9.55273 10.3203 9.55273C11.0586 9.55273 11.7813 9.53516 12.4688 9.50391V6.74414C16.4863 6.92578 19.4727 7.60547 19.4727 8.41601C19.4805 9.36719 15.3809 10.1387 10.3242 10.1387Z" fill="white"/>
</svg>
